<?xml version="1.0" standalone="no"?>
<!DOCTYPE svg PUBLIC "-//W3C//DTD SVG 20010904//EN"
 "http://www.w3.org/TR/2001/REC-SVG-20010904/DTD/svg10.dtd">
<svg version="1.0" xmlns="http://www.w3.org/2000/svg"
 width="200.000000pt" height="200.000000pt" viewBox="0 0 200.000000 200.000000"
 preserveAspectRatio="xMidYMid meet">
<metadata>
Created by potrace 1.10, written by Peter Selinger 2001-2011
</metadata>
<g transform="translate(0.000000,200.000000) scale(0.100000,-0.100000)"
fill="#000000" stroke="none">
<path d="M1137 1926 c-21 -34 -61 -86 -88 -116 l-48 -55 -28 35 c-80 99 -147
171 -158 166 -7 -2 -51 -32 -99 -66 l-87 -63 69 -71 c38 -39 81 -90 97 -114
27 -41 27 -43 10 -62 -20 -23 -142 -107 -202 -140 -24 -13 -43 -28 -43 -33 0
-5 9 -22 20 -37 11 -16 34 -59 51 -95 22 -47 36 -65 46 -61 17 7 173 115 220
153 l33 26 16 -38 c9 -21 24 -72 35 -113 l19 -74 -53 -77 c-65 -95 -207 -238
-314 -315 l-82 -59 28 -41 c16 -23 43 -69 60 -104 l32 -63 42 33 c73 56 217
201 265 265 25 34 50 59 55 56 13 -8 3 -357 -13 -467 -12 -85 -39 -150 -65
-160 -30 -11 -146 -6 -216 10 -39 9 -72 14 -74 12 -2 -2 3 -30 11 -63 7 -33
14 -84 14 -112 0 -49 2 -53 28 -60 15 -4 93 -8 173 -8 142 0 147 1 205 30 47
24 65 41 90 82 55 93 84 284 84 568 0 363 -35 570 -141 832 -13 32 -13 34 38
85 55 57 203 238 203 248 0 4 -44 34 -98 67 l-97 59 -38 -60z"/>
</g>
</svg>
