<?xml version="1.0" standalone="no"?>
<!DOCTYPE svg PUBLIC "-//W3C//DTD SVG 20010904//EN"
 "http://www.w3.org/TR/2001/REC-SVG-20010904/DTD/svg10.dtd">
<svg version="1.0" xmlns="http://www.w3.org/2000/svg"
 width="200.000000pt" height="200.000000pt" viewBox="0 0 200.000000 200.000000"
 preserveAspectRatio="xMidYMid meet">
<metadata>
Created by potrace 1.10, written by Peter Selinger 2001-2011
</metadata>
<g transform="translate(0.000000,200.000000) scale(0.100000,-0.100000)"
fill="#000000" stroke="none">
<path d="M1621 1433 c-34 -71 -105 -173 -180 -260 -36 -42 -79 -92 -95 -110
l-28 -34 104 -107 c57 -59 152 -169 212 -245 103 -131 110 -137 130 -124 11 8
62 40 113 72 l92 58 -29 36 c-41 51 -185 199 -253 259 l-58 52 68 82 c81 98
207 267 202 272 -8 6 -239 96 -247 96 -4 0 -18 -21 -31 -47z"/>
<path d="M310 1413 c-43 -82 -147 -220 -235 -311 l-74 -78 85 -85 c106 -105
194 -209 269 -319 32 -47 63 -84 69 -82 10 3 184 101 215 121 12 7 0 27 -56
93 -39 46 -114 125 -167 177 l-96 93 89 102 c122 138 204 247 194 256 -9 8
-239 90 -253 90 -5 0 -23 -26 -40 -57z"/>
<path d="M971 1443 c-30 -66 -146 -225 -226 -311 l-87 -92 82 -87 c107 -113
183 -202 244 -286 28 -37 53 -67 58 -67 9 0 209 108 221 120 11 10 -62 94
-189 215 l-105 100 72 80 c103 115 211 257 202 265 -10 10 -233 90 -248 90 -7
0 -17 -12 -24 -27z"/>
</g>
</svg>
