<?xml version="1.0" standalone="no"?>
<!DOCTYPE svg PUBLIC "-//W3C//DTD SVG 20010904//EN"
 "http://www.w3.org/TR/2001/REC-SVG-20010904/DTD/svg10.dtd">
<svg version="1.0" xmlns="http://www.w3.org/2000/svg"
 width="200.000000pt" height="200.000000pt" viewBox="0 0 200.000000 200.000000"
 preserveAspectRatio="xMidYMid meet">
<metadata>
Created by potrace 1.10, written by Peter Selinger 2001-2011
</metadata>
<g transform="translate(0.000000,200.000000) scale(0.100000,-0.100000)"
fill="#000000" stroke="none">
<path d="M1166 1950 c-38 -27 -70 -51 -72 -53 -2 -2 17 -19 44 -37 60 -43 172
-139 172 -149 0 -10 -253 -30 -264 -20 -4 4 -7 73 -4 153 l3 146 -128 0 -129
0 5 -42 c4 -24 9 -97 13 -164 l6 -121 -39 -6 c-22 -4 -93 -10 -157 -13 l-117
-7 6 -76 c11 -130 12 -134 49 -128 59 11 266 30 270 26 2 -2 6 -32 8 -66 l4
-63 -30 -5 c-17 -3 -82 -9 -144 -13 -62 -4 -113 -10 -113 -15 -1 -4 2 -50 6
-102 8 -107 1 -101 100 -86 33 5 92 13 131 16 l71 7 8 -67 c4 -37 5 -69 2 -71
-8 -8 -258 -34 -330 -34 l-69 0 6 -37 c3 -21 8 -71 12 -112 l6 -73 52 7 c147
20 352 41 358 36 3 -3 16 -44 28 -90 11 -46 32 -112 45 -147 l24 -64 -85 -46
c-142 -77 -300 -137 -482 -184 l-102 -26 29 -39 c16 -22 43 -68 61 -103 20
-40 37 -62 49 -62 52 0 309 102 488 195 l143 73 34 -46 c58 -80 160 -170 228
-202 72 -34 159 -40 208 -15 65 34 108 126 136 294 16 89 16 96 0 106 -23 13
-125 81 -153 101 -23 16 -23 16 -23 -24 0 -69 -21 -196 -36 -219 -27 -43 -62
-30 -136 47 -38 39 -68 77 -68 84 0 7 18 27 41 45 69 56 229 213 229 225 0 9
-133 103 -162 114 -5 2 -36 -26 -69 -62 -33 -36 -77 -79 -99 -96 -38 -30 -39
-30 -50 -10 -12 23 -52 172 -47 176 5 5 335 41 446 50 l93 7 -7 96 c-4 53 -10
100 -15 104 -4 5 -41 4 -81 -2 -107 -16 -463 -50 -468 -45 -7 6 -22 127 -16
132 6 6 366 41 428 42 l48 0 -7 98 c-3 53 -10 101 -14 105 -4 4 -36 3 -71 -2
-76 -13 -400 -44 -404 -39 -1 2 -5 31 -7 65 l-4 63 30 5 c60 9 375 35 430 35
30 0 58 4 61 10 5 9 -10 199 -17 206 -2 1 -21 -1 -43 -6 -22 -4 -67 -11 -100
-15 l-60 -6 40 33 c22 18 51 43 65 55 l25 23 -45 40 c-46 42 -166 126 -191
134 -8 3 -45 -17 -83 -44z"/>
</g>
</svg>
