<?xml version="1.0" standalone="no"?>
<!DOCTYPE svg PUBLIC "-//W3C//DTD SVG 20010904//EN"
 "http://www.w3.org/TR/2001/REC-SVG-20010904/DTD/svg10.dtd">
<svg version="1.0" xmlns="http://www.w3.org/2000/svg"
 width="200.000000pt" height="200.000000pt" viewBox="0 0 200.000000 200.000000"
 preserveAspectRatio="xMidYMid meet">
<metadata>
Created by potrace 1.10, written by Peter Selinger 2001-2011
</metadata>
<g transform="translate(0.000000,200.000000) scale(0.100000,-0.100000)"
fill="#000000" stroke="none">
<path d="M455 1944 c-30 -214 -124 -537 -244 -838 -18 -43 -28 -82 -24 -87 4
-4 71 -9 148 -11 l139 -3 17 45 17 45 466 3 466 2 0 -32 c0 -147 -69 -529
-117 -651 -51 -130 -76 -141 -287 -134 -89 3 -212 13 -274 22 -62 10 -115 15
-118 12 -3 -3 8 -45 25 -94 16 -48 33 -109 36 -135 l7 -46 77 -9 c42 -4 182
-8 311 -8 220 0 239 2 291 23 85 34 133 81 179 175 74 156 138 490 170 892 5
72 13 150 16 175 l5 45 -585 -3 c-322 -2 -586 0 -586 5 1 4 13 51 29 103 l27
95 572 0 572 0 0 125 0 125 -541 -4 c-523 -3 -541 -2 -536 15 21 71 37 148 34
159 -3 7 -39 14 -94 19 -48 3 -111 9 -140 13 l-51 6 -7 -49z"/>
</g>
</svg>
