<?xml version="1.0" standalone="no"?>
<!DOCTYPE svg PUBLIC "-//W3C//DTD SVG 20010904//EN"
 "http://www.w3.org/TR/2001/REC-SVG-20010904/DTD/svg10.dtd">
<svg version="1.0" xmlns="http://www.w3.org/2000/svg"
 width="200.000000pt" height="200.000000pt" viewBox="0 0 200.000000 200.000000"
 preserveAspectRatio="xMidYMid meet">
<metadata>
Created by potrace 1.10, written by Peter Selinger 2001-2011
</metadata>
<g transform="translate(0.000000,200.000000) scale(0.100000,-0.100000)"
fill="#000000" stroke="none">
<path d="M670 1948 c-18 -61 -74 -171 -133 -258 -63 -95 -154 -208 -179 -221
-25 -13 -23 -22 11 -42 17 -10 56 -41 87 -69 l57 -52 28 34 29 34 0 -254 0
-255 96 3 c92 4 95 3 86 -15 -36 -66 -262 -242 -405 -315 l-59 -29 44 -47 c24
-26 53 -60 65 -75 l22 -29 62 33 c33 18 89 52 122 76 l62 42 55 -53 c30 -29
70 -64 88 -79 l33 -26 -37 -16 c-118 -49 -323 -103 -461 -121 -29 -4 -53 -9
-53 -13 0 -3 12 -24 26 -44 14 -21 36 -63 49 -92 l24 -53 78 15 c174 32 330
82 485 155 l87 41 103 -46 c183 -82 495 -171 503 -144 12 46 41 119 61 156 13
24 24 47 24 51 0 4 -24 11 -52 14 -131 17 -418 90 -418 105 0 4 36 35 79 70
76 59 241 230 241 248 0 5 -22 31 -50 58 l-49 49 -261 -3 c-143 -1 -260 0
-260 4 0 4 12 25 28 46 l27 40 283 -3 282 -3 0 335 0 335 -440 -3 c-242 -1
-440 1 -440 5 0 5 11 25 25 46 l26 37 474 0 475 0 0 103 0 102 -420 -3 -421
-3 31 62 c17 33 30 62 28 64 -3 3 -217 45 -229 45 -3 0 -12 -19 -19 -42z m690
-628 l0 -40 -285 0 -285 0 0 40 0 40 285 0 285 0 0 -40z m-2 -242 l-3 -43
-282 -3 -283 -2 0 45 0 45 286 0 285 0 -3 -42z m-128 -477 c0 -10 -131 -111
-167 -130 -18 -9 -28 -8 -50 5 -53 33 -163 118 -163 126 0 4 86 8 190 8 105 0
190 -4 190 -9z"/>
</g>
</svg>
