<?xml version="1.0" standalone="no"?>
<!DOCTYPE svg PUBLIC "-//W3C//DTD SVG 20010904//EN"
 "http://www.w3.org/TR/2001/REC-SVG-20010904/DTD/svg10.dtd">
<svg version="1.0" xmlns="http://www.w3.org/2000/svg"
 width="200.000000pt" height="200.000000pt" viewBox="0 0 200.000000 200.000000"
 preserveAspectRatio="xMidYMid meet">
<metadata>
Created by potrace 1.10, written by Peter Selinger 2001-2011
</metadata>
<g transform="translate(0.000000,200.000000) scale(0.100000,-0.100000)"
fill="#000000" stroke="none">
<path d="M498 1524 l5 -186 -202 4 -201 3 0 -127 0 -126 200 5 200 6 0 -233 0
-232 -250 3 -250 4 0 -125 0 -125 995 0 995 0 0 125 0 125 -255 -3 -255 -4 0
232 0 233 215 -5 215 -6 0 127 0 126 -217 -3 -216 -4 7 186 6 186 -129 0 -128
0 5 -185 5 -185 -253 0 -253 0 7 168 c4 92 9 175 12 185 5 16 -6 17 -129 17
l-134 0 5 -186z m742 -654 l0 -230 -250 0 -250 0 0 223 c0 123 3 227 7 230 3
4 116 7 250 7 l243 0 0 -230z"/>
</g>
</svg>
