<?xml version="1.0" standalone="no"?>
<!DOCTYPE svg PUBLIC "-//W3C//DTD SVG 20010904//EN"
 "http://www.w3.org/TR/2001/REC-SVG-20010904/DTD/svg10.dtd">
<svg version="1.0" xmlns="http://www.w3.org/2000/svg"
 width="200.000000pt" height="200.000000pt" viewBox="0 0 200.000000 200.000000"
 preserveAspectRatio="xMidYMid meet">
<metadata>
Created by potrace 1.10, written by Peter Selinger 2001-2011
</metadata>
<g transform="translate(0.000000,200.000000) scale(0.100000,-0.100000)"
fill="#000000" stroke="none">
<path d="M422 1832 l3 -102 608 -3 607 -2 0 105 0 105 -610 0 -611 0 3 -103z"/>
<path d="M499 1640 c0 -3 0 -95 1 -205 2 -559 -47 -904 -161 -1132 l-38 -77
22 -14 c12 -8 50 -44 85 -79 l62 -65 26 59 c63 141 102 288 130 482 8 58 17
107 20 110 3 3 4 -146 3 -332 l-3 -339 90 0 89 0 -4 221 -3 221 52 0 52 0 -4
-200 -3 -200 83 0 82 0 0 200 0 200 51 0 51 0 -4 -200 -4 -200 83 0 83 0 0
200 0 200 50 0 50 0 0 -99 c0 -55 -3 -106 -6 -115 -4 -11 -19 -16 -45 -16 -44
0 -43 1 -28 -37 6 -15 14 -55 17 -88 l7 -60 72 0 c57 0 77 4 100 21 58 43 58
39 61 522 l3 442 -461 0 -461 0 3 48 3 47 435 0 435 0 -2 243 -1 243 -536 2
c-295 1 -536 0 -537 -3z m861 -240 l0 -60 -325 0 -325 0 0 60 0 60 325 0 325
0 0 -60z m-442 -627 l3 -93 -51 0 -50 0 0 88 c0 49 3 92 7 96 4 4 25 6 48 4
l40 -3 3 -92z m260 0 l3 -93 -51 0 -50 0 0 96 0 95 48 -3 47 -3 3 -92z m260 0
l3 -93 -51 0 -50 0 0 96 0 95 48 -3 47 -3 3 -92z"/>
</g>
</svg>
