<?xml version="1.0" standalone="no"?>
<!DOCTYPE svg PUBLIC "-//W3C//DTD SVG 20010904//EN"
 "http://www.w3.org/TR/2001/REC-SVG-20010904/DTD/svg10.dtd">
<svg version="1.0" xmlns="http://www.w3.org/2000/svg"
 width="200.000000pt" height="200.000000pt" viewBox="0 0 200.000000 200.000000"
 preserveAspectRatio="xMidYMid meet">
<metadata>
Created by potrace 1.10, written by Peter Selinger 2001-2011
</metadata>
<g transform="translate(0.000000,200.000000) scale(0.100000,-0.100000)"
fill="#000000" stroke="none">
<path d="M670 1039 c0 -510 -3 -941 -6 -958 l-6 -31 123 0 124 0 -3 850 -3
850 151 0 c102 0 150 -4 150 -11 0 -33 -86 -246 -157 -389 l-83 -165 65 -58
c82 -74 178 -216 205 -303 12 -41 20 -94 20 -139 0 -68 -2 -75 -26 -94 -24
-19 -40 -21 -145 -21 -67 0 -119 -4 -119 -9 0 -5 5 -22 11 -38 6 -15 17 -64
23 -108 l12 -80 135 1 c117 0 141 3 187 24 107 46 153 135 153 291 0 195 -74
368 -223 525 l-39 41 78 159 c94 190 197 440 190 459 -3 7 -25 39 -48 71 l-42
59 -363 0 -364 0 0 -926z"/>
</g>
</svg>
