<?xml version="1.0" standalone="no"?>
<!DOCTYPE svg PUBLIC "-//W3C//DTD SVG 20010904//EN"
 "http://www.w3.org/TR/2001/REC-SVG-20010904/DTD/svg10.dtd">
<svg version="1.0" xmlns="http://www.w3.org/2000/svg"
 width="200.000000pt" height="200.000000pt" viewBox="0 0 200.000000 200.000000"
 preserveAspectRatio="xMidYMid meet">
<metadata>
Created by potrace 1.10, written by Peter Selinger 2001-2011
</metadata>
<g transform="translate(0.000000,200.000000) scale(0.100000,-0.100000)"
fill="#000000" stroke="none">
<path d="M743 1308 l2 -203 -50 0 -50 0 3 163 2 162 -115 0 -115 0 0 -274 0
-275 163 2 162 2 0 -70 0 -70 -257 0 -258 1 0 -126 0 -125 750 0 750 0 0 126
0 126 -212 -1 -213 -1 0 70 0 70 163 -2 162 -2 0 243 c0 134 3 258 6 275 l7
31 -122 0 -121 0 0 -166 0 -165 -47 3 -48 3 1 203 2 202 -122 0 -121 0 3 -385
3 -385 -46 0 -47 0 4 385 3 385 -122 0 -121 0 1 -202z"/>
</g>
</svg>
