<?xml version="1.0" standalone="no"?>
<!DOCTYPE svg PUBLIC "-//W3C//DTD SVG 20010904//EN"
 "http://www.w3.org/TR/2001/REC-SVG-20010904/DTD/svg10.dtd">
<svg version="1.0" xmlns="http://www.w3.org/2000/svg"
 width="200.000000pt" height="200.000000pt" viewBox="0 0 200.000000 200.000000"
 preserveAspectRatio="xMidYMid meet">
<metadata>
Created by potrace 1.10, written by Peter Selinger 2001-2011
</metadata>
<g transform="translate(0.000000,200.000000) scale(0.100000,-0.100000)"
fill="#000000" stroke="none">
<path d="M840 1968 c-61 -52 -327 -158 -396 -158 -19 0 -19 -12 -16 -609 l3
-609 -78 -18 c-43 -9 -81 -18 -84 -20 -6 -3 34 -221 43 -229 5 -5 367 126 497
180 l91 38 0 108 0 109 -52 -21 c-106 -42 -179 -69 -188 -69 -6 0 -10 175 -10
483 l0 484 43 13 c23 7 83 30 132 52 50 21 96 42 103 45 10 4 12 -156 10 -851
l-3 -856 115 0 115 0 0 807 0 808 120 0 120 0 0 -540 0 -540 -112 0 c-62 1
-113 0 -113 -2 0 -1 8 -24 19 -50 10 -26 21 -66 25 -88 4 -22 9 -52 12 -67 l6
-28 111 0 c170 1 224 19 259 91 15 31 17 99 20 737 l3 702 -327 0 -327 0 -52
60 c-29 33 -55 60 -58 60 -3 -1 -17 -10 -31 -22z"/>
</g>
</svg>
