<?xml version="1.0" standalone="no"?>
<!DOCTYPE svg PUBLIC "-//W3C//DTD SVG 20010904//EN"
 "http://www.w3.org/TR/2001/REC-SVG-20010904/DTD/svg10.dtd">
<svg version="1.0" xmlns="http://www.w3.org/2000/svg"
 width="200.000000pt" height="200.000000pt" viewBox="0 0 200.000000 200.000000"
 preserveAspectRatio="xMidYMid meet">
<metadata>
Created by potrace 1.10, written by Peter Selinger 2001-2011
</metadata>
<g transform="translate(0.000000,200.000000) scale(0.100000,-0.100000)"
fill="#000000" stroke="none">
<path d="M410 1835 l0 -100 505 0 505 0 0 100 0 100 -505 0 -505 0 0 -100z"/>
<path d="M500 1445 l0 -220 418 0 417 0 0 220 0 220 -417 0 -418 0 0 -220z
m630 0 l0 -55 -210 0 -210 0 0 55 0 55 210 0 210 0 0 -55z"/>
<path d="M425 605 l0 -546 104 3 103 3 -1 324 -2 323 30 -21 c37 -27 48 -44
33 -49 -8 -2 -12 -32 -12 -89 l0 -85 68 4 67 3 0 -173 0 -172 93 0 93 0 -3
173 -3 172 83 -3 82 -4 0 84 0 83 -205 -3 c-113 -2 -205 -1 -205 2 0 3 18 29
40 58 47 62 78 140 88 218 6 50 9 55 34 58 l27 3 3 -122 c3 -118 4 -122 29
-141 20 -15 49 -21 128 -25 l101 -6 -2 -191 -3 -191 -83 0 c-48 0 -82 -4 -82
-10 0 -5 7 -35 15 -65 8 -30 15 -75 15 -99 l0 -43 113 4 c133 4 176 21 204 76
17 34 18 76 21 515 l3 477 -488 0 -488 0 0 -545z m305 333 c0 -58 -21 -110
-61 -152 l-38 -41 -1 113 0 112 50 0 c50 0 50 0 50 -32z m470 -43 l0 -75 -43
0 c-24 0 -48 5 -55 12 -13 13 -17 120 -5 131 3 4 28 7 55 7 l48 0 0 -75z"/>
</g>
</svg>
