<?xml version="1.0" standalone="no"?>
<!DOCTYPE svg PUBLIC "-//W3C//DTD SVG 20010904//EN"
 "http://www.w3.org/TR/2001/REC-SVG-20010904/DTD/svg10.dtd">
<svg version="1.0" xmlns="http://www.w3.org/2000/svg"
 width="200.000000pt" height="200.000000pt" viewBox="0 0 200.000000 200.000000"
 preserveAspectRatio="xMidYMid meet">
<metadata>
Created by potrace 1.10, written by Peter Selinger 2001-2011
</metadata>
<g transform="translate(0.000000,200.000000) scale(0.100000,-0.100000)"
fill="#000000" stroke="none">
<path d="M660 1909 l0 -81 -150 3 -150 4 0 -100 0 -100 150 4 150 3 0 -62 0
-62 -120 4 -120 3 0 -247 0 -248 250 0 250 0 0 -45 0 -45 -265 0 -265 0 0 -97
0 -98 256 3 257 4 -7 -44 c-4 -24 -11 -47 -16 -52 -5 -5 -130 -7 -279 -4
l-271 4 0 -93 c0 -51 0 -96 0 -99 0 -3 105 -5 233 -5 l232 1 -54 -51 c-96 -89
-282 -165 -460 -185 -33 -3 -61 -9 -61 -13 0 -3 9 -19 21 -36 11 -16 36 -61
55 -98 l35 -68 37 7 c248 45 496 185 604 341 l29 43 49 -49 c104 -104 251
-201 382 -251 74 -29 250 -80 274 -80 6 0 18 24 27 53 9 29 28 75 42 102 13
27 21 52 17 56 -4 3 -43 12 -87 19 -108 17 -233 54 -308 91 -58 29 -177 107
-177 116 0 2 127 3 283 3 l282 -1 3 98 3 98 -346 -3 -346 -4 6 38 c4 22 8 45
11 52 3 11 62 13 304 10 l300 -3 0 100 0 100 -295 -3 -295 -3 0 46 0 46 270
-3 270 -3 0 250 0 250 -130 -3 -130 -3 0 62 0 61 190 -4 191 -4 -3 100 -3 100
-188 -3 -188 -3 2 79 2 78 -113 0 -113 0 2 -77 2 -78 -156 0 -156 0 2 78 2 77
-111 3 -112 3 0 -82z m530 -329 l0 -60 -155 0 -155 0 0 60 0 60 155 0 155 0 0
-60z m-270 -310 l0 -70 -140 0 -140 0 0 70 0 70 140 0 140 0 0 -70z m530 0 l0
-70 -160 0 -160 0 0 70 0 70 160 0 160 0 0 -70z"/>
</g>
</svg>
