<?xml version="1.0" standalone="no"?>
<!DOCTYPE svg PUBLIC "-//W3C//DTD SVG 20010904//EN"
 "http://www.w3.org/TR/2001/REC-SVG-20010904/DTD/svg10.dtd">
<svg version="1.0" xmlns="http://www.w3.org/2000/svg"
 width="200.000000pt" height="200.000000pt" viewBox="0 0 200.000000 200.000000"
 preserveAspectRatio="xMidYMid meet">
<metadata>
Created by potrace 1.10, written by Peter Selinger 2001-2011
</metadata>
<g transform="translate(0.000000,200.000000) scale(0.100000,-0.100000)"
fill="#000000" stroke="none">
<path d="M638 1910 l4 -70 -156 0 -156 0 0 -91 0 -90 153 3 152 3 3 -42 3 -43
-135 0 -136 0 0 -85 0 -85 135 7 135 6 0 -53 0 -53 -185 7 -185 6 0 -93 0 -94
308 1 307 1 3 -37 3 -38 -248 0 -248 0 3 -260 3 -260 -70 0 -71 0 0 -95 0 -95
71 0 72 0 -5 -170 -6 -170 114 0 114 0 0 170 0 170 385 0 385 0 0 -59 c0 -84
-3 -85 -170 -78 l-139 7 10 -28 c6 -15 16 -54 23 -87 12 -58 14 -60 52 -68 21
-5 104 -7 184 -5 226 6 250 26 258 212 l4 108 79 -4 79 -3 0 97 0 98 -80 0
-81 0 3 260 3 260 -260 2 -260 3 0 35 0 35 333 -1 332 -1 0 93 0 93 -197 -2
-198 -2 0 45 0 45 158 -2 157 -1 0 84 0 84 -161 0 -160 0 3 43 3 42 183 -3
182 -3 0 90 0 91 -184 0 -183 0 5 70 5 70 -112 0 -111 0 0 -70 0 -70 -151 0
-152 0 7 70 6 70 -113 0 -113 0 4 -70z m512 -285 l0 -45 -150 0 -150 0 0 38
c0 21 3 42 7 45 3 4 71 7 150 7 l143 0 0 -45z m0 -255 l0 -51 -147 3 -148 3
-3 33 c-6 62 -7 62 153 62 l145 0 0 -50z m-260 -525 l0 -45 -135 0 -135 0 0
45 0 45 135 0 135 0 0 -45z m500 0 l0 -46 -147 3 -148 3 -3 28 c-7 56 -5 57
153 57 l145 0 0 -45z m-500 -250 l0 -45 -135 0 -135 0 0 45 0 45 135 0 135 0
0 -45z m498 -2 l3 -43 -150 0 -151 0 0 38 c0 21 3 42 7 46 4 3 70 5 147 4
l141 -3 3 -42z"/>
</g>
</svg>
