<?xml version="1.0" standalone="no"?>
<!DOCTYPE svg PUBLIC "-//W3C//DTD SVG 20010904//EN"
 "http://www.w3.org/TR/2001/REC-SVG-20010904/DTD/svg10.dtd">
<svg version="1.0" xmlns="http://www.w3.org/2000/svg"
 width="200.000000pt" height="200.000000pt" viewBox="0 0 200.000000 200.000000"
 preserveAspectRatio="xMidYMid meet">
<metadata>
Created by potrace 1.10, written by Peter Selinger 2001-2011
</metadata>
<g transform="translate(0.000000,200.000000) scale(0.100000,-0.100000)"
fill="#000000" stroke="none">
<path d="M1681 1339 c-195 -77 -747 -137 -1313 -142 -131 -1 -238 -3 -238 -5
0 -1 11 -29 24 -61 14 -32 30 -79 37 -104 l11 -47 75 0 74 0 33 -72 c18 -40
39 -90 45 -110 l13 -38 119 0 c65 0 119 2 119 4 0 2 -20 53 -44 112 l-43 109
81 7 c45 3 102 6 127 7 l45 1 44 -120 43 -120 113 0 113 0 -19 69 c-11 38 -29
94 -41 126 -11 31 -18 59 -15 62 7 7 387 46 393 40 5 -6 -58 -162 -95 -231
-15 -28 -28 -54 -30 -58 -2 -5 53 -8 122 -8 l126 0 57 113 c32 61 59 117 61
123 1 6 -41 24 -95 41 -54 17 -91 33 -83 35 8 3 80 18 160 33 80 15 150 30
157 32 12 5 -123 204 -142 209 -5 1 -21 -2 -34 -7z"/>
</g>
</svg>
