<?xml version="1.0" standalone="no"?>
<!DOCTYPE svg PUBLIC "-//W3C//DTD SVG 20010904//EN"
 "http://www.w3.org/TR/2001/REC-SVG-20010904/DTD/svg10.dtd">
<svg version="1.0" xmlns="http://www.w3.org/2000/svg"
 width="200.000000pt" height="200.000000pt" viewBox="0 0 200.000000 200.000000"
 preserveAspectRatio="xMidYMid meet">
<metadata>
Created by potrace 1.10, written by Peter Selinger 2001-2011
</metadata>
<g transform="translate(0.000000,200.000000) scale(0.100000,-0.100000)"
fill="#000000" stroke="none">
<path d="M60 1835 l0 -160 772 0 773 0 3 -646 c3 -758 13 -693 -109 -694 -41
0 -129 4 -196 8 l-122 8 34 -93 c18 -51 40 -127 50 -169 l16 -76 107 -6 c132
-6 330 7 398 28 64 19 98 46 127 98 26 49 25 29 29 1152 l3 710 -943 0 -942 0
0 -160z"/>
</g>
</svg>
