<?xml version="1.0" standalone="no"?>
<!DOCTYPE svg PUBLIC "-//W3C//DTD SVG 20010904//EN"
 "http://www.w3.org/TR/2001/REC-SVG-20010904/DTD/svg10.dtd">
<svg version="1.0" xmlns="http://www.w3.org/2000/svg"
 width="200.000000pt" height="200.000000pt" viewBox="0 0 200.000000 200.000000"
 preserveAspectRatio="xMidYMid meet">
<metadata>
Created by potrace 1.10, written by Peter Selinger 2001-2011
</metadata>
<g transform="translate(0.000000,200.000000) scale(0.100000,-0.100000)"
fill="#000000" stroke="none">
<path d="M879 1993 c0 -4 0 -55 1 -112 l2 -104 -211 7 -211 6 0 -110 0 -110
163 -1 162 -1 -92 -29 -91 -30 25 -62 c32 -77 74 -227 67 -238 -2 -4 -65 -5
-139 -2 l-135 6 0 -114 0 -114 550 0 550 0 0 114 0 114 -115 -6 c-63 -3 -117
-2 -119 2 -3 4 12 48 33 97 21 49 46 113 54 141 l16 53 -37 9 c-129 34 -174
43 -181 35 -4 -5 -18 -47 -30 -93 -12 -47 -36 -121 -54 -165 l-32 -81 -162 -3
c-90 -1 -163 1 -163 6 0 5 41 21 90 35 53 16 90 33 90 40 0 17 -52 168 -79
230 -12 27 -21 51 -21 53 0 3 155 3 345 2 l345 -3 0 113 0 112 -191 -6 -190
-7 2 109 2 109 -122 3 c-66 1 -121 -1 -122 -5z"/>
<path d="M540 440 l0 -420 115 0 114 0 3 63 3 62 205 0 205 0 3 -62 3 -63 112
0 112 0 0 420 0 420 -437 0 -438 0 0 -420z m650 60 l0 -150 -210 0 -210 0 0
150 0 150 210 0 210 0 0 -150z"/>
</g>
</svg>
