<?xml version="1.0" standalone="no"?>
<!DOCTYPE svg PUBLIC "-//W3C//DTD SVG 20010904//EN"
 "http://www.w3.org/TR/2001/REC-SVG-20010904/DTD/svg10.dtd">
<svg version="1.0" xmlns="http://www.w3.org/2000/svg"
 width="200.000000pt" height="200.000000pt" viewBox="0 0 200.000000 200.000000"
 preserveAspectRatio="xMidYMid meet">
<metadata>
Created by potrace 1.10, written by Peter Selinger 2001-2011
</metadata>
<g transform="translate(0.000000,200.000000) scale(0.100000,-0.100000)"
fill="#000000" stroke="none">
<path d="M788 1619 l5 -132 -292 5 -291 5 0 -114 0 -113 290 0 291 0 -3 -107
-3 -108 -340 1 c-187 0 -355 4 -373 7 l-32 7 0 -123 0 -122 88 7 c48 3 233 7
412 7 368 0 349 8 200 -81 -195 -117 -517 -266 -685 -318 -22 -7 -44 -16 -49
-20 -4 -5 11 -32 34 -61 23 -29 53 -74 66 -101 13 -26 30 -48 38 -48 23 0 301
126 450 203 167 87 393 230 548 345 l110 82 277 -1 c152 0 315 -4 364 -7 l87
-7 0 124 c0 106 -2 122 -15 117 -25 -9 -455 -20 -455 -11 0 5 48 58 108 119
59 61 143 154 187 206 43 52 85 102 92 111 13 15 3 23 -94 79 -59 34 -111 62
-115 63 -4 1 -24 -26 -45 -60 -21 -34 -69 -102 -108 -150 l-70 -88 -3 81 -3
81 -212 -1 -212 -1 3 128 2 127 -128 0 -129 0 5 -131z m602 -358 c0 -5 -15
-22 -33 -38 -19 -15 -71 -61 -116 -101 l-82 -73 -62 3 -62 3 -3 108 -3 107
181 0 c104 0 180 -4 180 -9z"/>
</g>
</svg>
