<?xml version="1.0" standalone="no"?>
<!DOCTYPE svg PUBLIC "-//W3C//DTD SVG 20010904//EN"
 "http://www.w3.org/TR/2001/REC-SVG-20010904/DTD/svg10.dtd">
<svg version="1.0" xmlns="http://www.w3.org/2000/svg"
 width="200.000000pt" height="200.000000pt" viewBox="0 0 200.000000 200.000000"
 preserveAspectRatio="xMidYMid meet">
<metadata>
Created by potrace 1.10, written by Peter Selinger 2001-2011
</metadata>
<g transform="translate(0.000000,200.000000) scale(0.100000,-0.100000)"
fill="#000000" stroke="none">
<path d="M20 1600 l0 -115 435 3 436 3 -3 -93 -3 -93 -210 0 -210 0 0 -545 0
-545 535 0 535 0 0 545 0 545 -212 -3 -213 -3 0 96 0 96 435 -3 435 -3 0 115
0 115 -980 0 -980 0 0 -115z m865 -615 l0 -110 -102 -3 -103 -3 0 116 0 116
103 -3 102 -3 0 -110z m443 -2 l3 -113 -111 0 -110 0 0 115 0 116 108 -3 107
-3 3 -112z m-438 -443 l0 -130 -105 0 -105 0 0 130 0 130 105 0 105 0 0 -130z
m440 0 l0 -130 -110 0 -110 0 0 130 0 130 110 0 110 0 0 -130z"/>
</g>
</svg>
