<?xml version="1.0" standalone="no"?>
<!DOCTYPE svg PUBLIC "-//W3C//DTD SVG 20010904//EN"
 "http://www.w3.org/TR/2001/REC-SVG-20010904/DTD/svg10.dtd">
<svg version="1.0" xmlns="http://www.w3.org/2000/svg"
 width="200.000000pt" height="200.000000pt" viewBox="0 0 200.000000 200.000000"
 preserveAspectRatio="xMidYMid meet">
<metadata>
Created by potrace 1.10, written by Peter Selinger 2001-2011
</metadata>
<g transform="translate(0.000000,200.000000) scale(0.100000,-0.100000)"
fill="#000000" stroke="none">
<path d="M815 1980 c-1 -3 -11 -40 -20 -84 l-18 -79 -158 5 -159 5 0 -91 0
-92 135 4 135 4 -22 -62 -23 -62 -187 4 -188 3 0 -95 0 -95 715 0 715 0 0 97
0 97 -117 -6 -116 -6 6 149 6 149 -256 -3 c-206 -2 -255 0 -251 10 12 32 39
130 36 133 -6 6 -230 20 -233 15z m475 -390 l0 -60 -185 0 c-102 0 -185 3
-185 7 0 3 8 30 17 60 l17 53 168 0 168 0 0 -60z"/>
<path d="M1005 1262 l-560 -2 0 -214 0 -214 310 1 310 2 3 -49 3 -48 -355 3
-356 4 0 -93 0 -92 83 2 82 3 3 -59 3 -58 -123 3 -123 4 0 -99 0 -98 394 1
394 2 -5 -126 -5 -126 120 3 119 3 -1 123 -2 124 225 -4 226 -3 0 101 0 101
-225 -5 -225 -5 0 63 0 63 190 -6 190 -5 0 93 0 94 -191 -6 -190 -6 3 49 3 49
138 -3 137 -3 0 220 c0 122 -3 220 -7 219 -5 -2 -260 -4 -568 -6z m353 -214
l-3 -53 -342 -3 -343 -2 0 55 0 55 346 0 345 0 -3 -52z m-288 -538 l0 -60
-162 2 -163 3 -3 44 c-5 73 -11 71 168 71 l160 0 0 -60z"/>
</g>
</svg>
