<?xml version="1.0" standalone="no"?>
<!DOCTYPE svg PUBLIC "-//W3C//DTD SVG 20010904//EN"
 "http://www.w3.org/TR/2001/REC-SVG-20010904/DTD/svg10.dtd">
<svg version="1.0" xmlns="http://www.w3.org/2000/svg"
 width="200.000000pt" height="200.000000pt" viewBox="0 0 200.000000 200.000000"
 preserveAspectRatio="xMidYMid meet">
<metadata>
Created by potrace 1.10, written by Peter Selinger 2001-2011
</metadata>
<g transform="translate(0.000000,200.000000) scale(0.100000,-0.100000)"
fill="#000000" stroke="none">
<path d="M896 1953 c-4 -9 -27 -47 -52 -85 -78 -117 -209 -234 -371 -332 -35
-21 -63 -39 -63 -42 0 -2 20 -29 45 -59 25 -31 52 -69 60 -85 9 -17 19 -30 24
-30 4 0 47 27 94 60 48 33 89 60 92 60 3 0 5 -24 5 -52 l0 -53 315 0 315 0 0
59 0 58 23 -16 c44 -32 153 -96 163 -96 10 0 128 189 122 195 -2 1 -43 23 -93
48 -167 84 -321 211 -401 331 l-37 56 -117 0 c-101 0 -119 -2 -124 -17z m244
-313 c14 -14 47 -44 73 -68 26 -23 47 -45 47 -47 0 -3 -102 -5 -227 -5 l-226
0 64 68 c36 37 85 93 109 125 l43 58 46 -53 c25 -29 57 -64 71 -78z"/>
<path d="M1398 761 c4 -554 9 -521 -76 -520 -26 0 -69 4 -97 9 -27 4 -51 7
-52 6 -1 -1 4 -22 11 -48 8 -25 17 -71 21 -102 9 -69 14 -70 159 -64 122 5
172 25 198 78 16 32 18 78 19 495 0 253 4 499 7 548 l7 87 -100 0 -100 0 3
-489z"/>
<path d="M525 620 l0 -600 91 0 92 0 -2 218 -1 217 78 3 78 3 -3 -113 -3 -113
-53 1 c-53 2 -54 2 -48 -25 3 -14 11 -59 18 -100 l12 -74 83 6 c99 6 142 27
160 77 9 25 12 182 12 568 l1 532 -257 0 -258 0 0 -600z m335 365 l0 -65 -80
0 -80 0 0 58 c0 32 3 62 7 65 3 4 39 7 80 7 l73 0 0 -65z m0 -300 l0 -65 -80
0 -80 0 0 65 0 65 80 0 80 0 0 -65z"/>
<path d="M1125 800 l0 -390 93 0 92 0 0 390 0 390 -92 0 -93 0 0 -390z"/>
</g>
</svg>
