<?xml version="1.0" encoding="UTF-8" standalone="no"?>
<svg
   xmlns:dc="http://purl.org/dc/elements/1.1/"
   xmlns:cc="http://creativecommons.org/ns#"
   xmlns:rdf="http://www.w3.org/1999/02/22-rdf-syntax-ns#"
   xmlns:svg="http://www.w3.org/2000/svg"
   xmlns="http://www.w3.org/2000/svg"
   id="svg2"
   preserveAspectRatio="xMidYMid meet"
   viewBox="0 0 200.000000 200.000000"
   height="200.000000pt"
   width="200.000000pt"
   version="1.0">
  <defs
     id="defs16" />
  <metadata
     id="metadata4">
Created by potrace 1.10, written by Peter Selinger 2001-2011
<rdf:RDF>
  <cc:Work
     rdf:about="">
    <dc:format>image/svg+xml</dc:format>
    <dc:type
       rdf:resource="http://purl.org/dc/dcmitype/StillImage" />
    <dc:title></dc:title>
  </cc:Work>
</rdf:RDF>
</metadata>
  <path
     d="m 107.93376,20.981823 0,22.257142 44.51429,0 0,13.098701 -17.03896,0 0,135.353234 -14.58961,0 0,-35.03636 c -16.54199,5.32467 -39.154114,11.18182 -67.836364,17.57143 l -5.431168,-15.65455 c 0.993939,-0.14199 8.058008,-1.31341 21.192206,-3.51428 l 0,-98.719475 -19.48831,0 0,-13.098701 44.088309,0 0,-22.257142 -36.633764,0 0,-12.6727265 88.283111,0 0,12.6727265 z m 12.88572,35.355843 -37.91169,0 0,21.511688 37.91169,0 z m 0,34.184415 -37.91169,0 0,21.831159 37.91169,0 z m 0,34.503889 -37.91169,0 0,27.47532 c 17.39394,-3.76277 30.03117,-6.74458 37.91169,-8.94545 z"
     style="font-style:normal;font-variant:normal;font-weight:normal;font-stretch:normal;font-size:medium;line-height:125%;font-family:TakaoPGothic;-inkscape-font-specification:TakaoPGothic;letter-spacing:0px;word-spacing:0px;fill:#000000;fill-opacity:1;stroke:none;stroke-width:1px;stroke-linecap:butt;stroke-linejoin:miter;stroke-opacity:1"
     id="path4160" />
</svg>
