<?xml version="1.0" standalone="no"?>
<!DOCTYPE svg PUBLIC "-//W3C//DTD SVG 20010904//EN"
 "http://www.w3.org/TR/2001/REC-SVG-20010904/DTD/svg10.dtd">
<svg version="1.0" xmlns="http://www.w3.org/2000/svg"
 width="200.000000pt" height="200.000000pt" viewBox="0 0 200.000000 200.000000"
 preserveAspectRatio="xMidYMid meet">
<metadata>
Created by potrace 1.10, written by Peter Selinger 2001-2011
</metadata>
<g transform="translate(0.000000,200.000000) scale(0.100000,-0.100000)"
fill="#000000" stroke="none">
<path d="M261 1560 l-103 -108 106 -71 c117 -79 231 -168 347 -273 42 -37 78
-68 81 -68 3 0 55 52 114 116 l109 116 -26 22 c-230 189 -486 377 -511 375 -7
-1 -60 -50 -117 -109z"/>
<path d="M1500 1605 c-89 -91 -245 -207 -384 -285 -73 -41 -114 -70 -111 -78
2 -7 44 -59 92 -117 l88 -104 55 31 c143 79 351 230 558 406 l34 28 -118 88
c-64 49 -124 91 -133 93 -10 2 -41 -22 -81 -62z"/>
<path d="M1095 869 c-53 -60 -95 -113 -91 -116 3 -3 85 -49 183 -102 214 -117
326 -186 474 -291 61 -44 114 -80 117 -80 4 1 47 65 95 142 l89 142 -24 18
c-68 52 -320 193 -514 289 -121 60 -223 109 -226 109 -3 0 -49 -50 -103 -111z"/>
<path d="M690 909 c-170 -108 -574 -298 -632 -299 -43 -1 -41 -15 18 -174 32
-86 62 -156 66 -156 14 0 354 167 449 220 52 29 135 79 185 112 l92 58 -36
143 c-19 78 -38 145 -41 149 -3 3 -49 -20 -101 -53z"/>
</g>
</svg>
