<?xml version="1.0" standalone="no"?>
<!DOCTYPE svg PUBLIC "-//W3C//DTD SVG 20010904//EN"
 "http://www.w3.org/TR/2001/REC-SVG-20010904/DTD/svg10.dtd">
<svg version="1.0" xmlns="http://www.w3.org/2000/svg"
 width="200.000000pt" height="200.000000pt" viewBox="0 0 200.000000 200.000000"
 preserveAspectRatio="xMidYMid meet">
<metadata>
Created by potrace 1.10, written by Peter Selinger 2001-2011
</metadata>
<g transform="translate(0.000000,200.000000) scale(0.100000,-0.100000)"
fill="#000000" stroke="none">
<path d="M845 990 l0 -970 120 0 120 0 -3 717 c-2 516 1 713 9 700 15 -26 57
-195 65 -266 4 -34 11 -64 16 -67 5 -3 40 6 78 21 48 18 70 32 70 44 0 32 -88
327 -111 373 -8 15 -13 15 -59 -3 -28 -10 -55 -19 -61 -19 -9 0 -10 60 -7 220
l5 220 -121 0 -121 0 0 -970z"/>
<path d="M636 1463 c-10 -145 -25 -248 -53 -354 -14 -56 -22 -104 -17 -108 17
-14 155 -73 160 -68 10 10 45 158 59 254 8 54 18 150 21 215 l7 117 -24 5
c-59 13 -131 26 -139 26 -4 0 -11 -39 -14 -87z"/>
</g>
</svg>
