<?xml version="1.0" standalone="no"?>
<!DOCTYPE svg PUBLIC "-//W3C//DTD SVG 20010904//EN"
 "http://www.w3.org/TR/2001/REC-SVG-20010904/DTD/svg10.dtd">
<svg version="1.0" xmlns="http://www.w3.org/2000/svg"
 width="200.000000pt" height="200.000000pt" viewBox="0 0 200.000000 200.000000"
 preserveAspectRatio="xMidYMid meet">
<metadata>
Created by potrace 1.10, written by Peter Selinger 2001-2011
</metadata>
<g transform="translate(0.000000,200.000000) scale(0.100000,-0.100000)"
fill="#000000" stroke="none">
<path d="M1588 1126 c-49 -23 -91 -45 -94 -48 -3 -4 17 -35 45 -71 63 -80 147
-213 185 -295 16 -34 33 -62 38 -62 11 0 218 121 218 127 0 8 -121 185 -159
233 -67 85 -133 160 -139 159 -4 0 -46 -20 -94 -43z"/>
<path d="M253 1084 c-42 -84 -146 -220 -199 -260 -19 -15 -34 -30 -34 -35 0
-9 178 -149 190 -149 11 0 83 80 135 152 26 34 72 112 101 171 l55 108 -94 44
c-52 25 -99 45 -105 45 -6 0 -28 -34 -49 -76z"/>
<path d="M1155 1106 c-65 -16 -90 -26 -88 -36 1 -8 17 -58 36 -110 19 -52 45
-142 58 -200 13 -58 24 -107 26 -109 6 -9 233 63 233 73 0 24 -63 214 -102
309 -29 68 -45 97 -57 96 -9 -1 -56 -11 -106 -23z"/>
<path d="M690 1098 c-35 -5 -65 -10 -66 -11 -2 -1 4 -45 12 -97 8 -52 17 -150
21 -217 4 -79 10 -123 17 -123 6 0 59 5 119 12 98 10 107 13 107 32 0 60 -41
350 -56 399 -6 19 -45 21 -154 5z"/>
</g>
</svg>
