<?xml version="1.0" standalone="no"?>
<!DOCTYPE svg PUBLIC "-//W3C//DTD SVG 20010904//EN"
 "http://www.w3.org/TR/2001/REC-SVG-20010904/DTD/svg10.dtd">
<svg version="1.0" xmlns="http://www.w3.org/2000/svg"
 width="200.000000pt" height="200.000000pt" viewBox="0 0 200.000000 200.000000"
 preserveAspectRatio="xMidYMid meet">
<metadata>
Created by potrace 1.10, written by Peter Selinger 2001-2011
</metadata>
<g transform="translate(0.000000,200.000000) scale(0.100000,-0.100000)"
fill="#000000" stroke="none">
<path d="M529 1363 c-1 -5 0 -48 1 -97 l2 -89 -251 5 -251 5 0 -116 0 -116
250 3 250 4 0 -86 0 -87 118 3 117 3 -4 83 -3 82 232 0 232 0 -3 -82 -4 -83
118 -3 117 -3 0 86 0 86 265 -3 265 -3 0 116 0 115 -266 -4 -265 -5 2 94 2 94
-121 3 -122 3 7 -96 6 -95 -233 0 -233 0 6 95 6 95 -119 0 c-66 0 -120 -3
-121 -7z"/>
</g>
</svg>
