<?xml version="1.0" standalone="no"?>
<!DOCTYPE svg PUBLIC "-//W3C//DTD SVG 20010904//EN"
 "http://www.w3.org/TR/2001/REC-SVG-20010904/DTD/svg10.dtd">
<svg version="1.0" xmlns="http://www.w3.org/2000/svg"
 width="200.000000pt" height="200.000000pt" viewBox="0 0 200.000000 200.000000"
 preserveAspectRatio="xMidYMid meet">
<metadata>
Created by potrace 1.10, written by Peter Selinger 2001-2011
</metadata>
<g transform="translate(0.000000,200.000000) scale(0.100000,-0.100000)"
fill="#000000" stroke="none">
<path d="M1370 1939 c-161 -47 -501 -86 -818 -96 -181 -5 -202 -8 -196 -22 4
-9 19 -49 33 -90 l26 -73 140 6 c291 14 659 52 920 97 66 11 123 23 127 27 10
11 -132 172 -151 171 -9 -1 -45 -10 -81 -20z"/>
<path d="M1346 1634 c-16 -47 -52 -125 -80 -175 l-51 -89 -115 1 -115 0 68 26
c49 19 67 30 67 44 0 23 -55 164 -81 206 l-20 31 -77 -25 c-42 -13 -83 -26
-90 -29 -9 -2 -4 -21 19 -66 30 -59 69 -161 69 -180 0 -4 -64 -8 -142 -7
l-143 1 53 24 c28 13 52 29 52 35 0 24 -89 199 -104 205 -8 3 -52 -6 -96 -21
l-81 -27 23 -36 c12 -21 27 -46 34 -57 7 -11 22 -44 34 -74 l21 -53 -86 3 -85
4 0 -97 0 -97 125 6 125 6 0 -46 c0 -81 5 -79 -146 -71 l-134 7 0 -103 0 -103
115 7 c134 8 128 14 89 -96 -64 -176 -162 -334 -288 -457 -46 -47 -97 -91
-111 -99 l-27 -13 49 -52 c27 -29 59 -69 72 -90 12 -20 26 -37 30 -37 4 0 42
32 85 72 l78 72 19 -25 c10 -13 32 -52 50 -85 l31 -62 71 20 c104 29 240 83
336 135 l83 45 112 -55 c61 -30 147 -67 191 -81 92 -29 228 -67 230 -63 1 1
14 36 30 77 15 41 36 91 46 112 l18 36 -52 7 c-99 13 -202 36 -294 66 -51 17
-93 32 -93 34 0 3 31 35 68 72 37 38 98 108 135 157 75 99 75 84 3 173 l-39
48 -305 -3 -305 -4 7 26 c3 14 11 37 16 51 l10 25 287 -1 c159 0 341 -4 406
-7 l117 -7 0 105 0 105 -127 -7 c-71 -5 -245 -7 -388 -6 l-260 3 3 50 c2 28 7
54 12 58 4 5 170 7 369 5 l361 -3 0 95 0 96 -100 -4 c-55 -3 -100 -1 -100 3 0
3 20 39 44 78 49 81 106 192 106 205 0 5 -39 19 -87 31 -49 12 -95 24 -103 26
-12 4 -23 -17 -44 -81z m-142 -1033 c6 -10 -127 -141 -143 -141 -14 0 -164
122 -169 138 -3 9 32 12 152 12 85 0 157 -4 160 -9z m-336 -236 l24 -22 -92
-37 c-84 -34 -270 -87 -278 -80 -2 1 25 42 60 91 34 48 76 114 93 145 l30 57
70 -66 c38 -37 81 -76 93 -88z"/>
</g>
</svg>
