<?xml version="1.0" standalone="no"?>
<!DOCTYPE svg PUBLIC "-//W3C//DTD SVG 20010904//EN"
 "http://www.w3.org/TR/2001/REC-SVG-20010904/DTD/svg10.dtd">
<svg version="1.0" xmlns="http://www.w3.org/2000/svg"
 width="200.000000pt" height="200.000000pt" viewBox="0 0 200.000000 200.000000"
 preserveAspectRatio="xMidYMid meet">
<metadata>
Created by potrace 1.10, written by Peter Selinger 2001-2011
</metadata>
<g transform="translate(0.000000,200.000000) scale(0.100000,-0.100000)"
fill="#000000" stroke="none">
<path d="M1125 1983 l-120 -4 3 -598 c3 -570 2 -599 -15 -606 -10 -4 -60 -22
-111 -41 l-93 -34 3 540 3 540 -120 0 -120 0 3 -574 3 -574 -58 -12 c-32 -6
-63 -13 -69 -15 -8 -2 -5 -39 9 -122 11 -65 22 -120 23 -122 3 -4 259 86 423
150 l123 48 -4 -275 -3 -274 120 0 120 0 0 990 c0 545 0 989 0 988 0 -1 -54
-4 -120 -5z"/>
</g>
</svg>
