<?xml version="1.0" standalone="no"?>
<!DOCTYPE svg PUBLIC "-//W3C//DTD SVG 20010904//EN"
 "http://www.w3.org/TR/2001/REC-SVG-20010904/DTD/svg10.dtd">
<svg version="1.0" xmlns="http://www.w3.org/2000/svg"
 width="200.000000pt" height="200.000000pt" viewBox="0 0 200.000000 200.000000"
 preserveAspectRatio="xMidYMid meet">
<metadata>
Created by potrace 1.10, written by Peter Selinger 2001-2011
</metadata>
<g transform="translate(0.000000,200.000000) scale(0.100000,-0.100000)"
fill="#000000" stroke="none">
<path d="M928 1895 l4 -95 -226 0 -226 0 0 -106 0 -105 225 7 225 7 0 -101 0
-102 105 0 105 0 0 102 0 101 255 -6 255 -7 0 108 0 107 -256 -3 -256 -3 4 95
3 96 -110 0 -110 0 3 -95z"/>
<path d="M610 1425 l0 -86 -100 3 -100 3 0 -108 0 -107 100 6 100 7 0 -98 0
-98 -95 7 -95 6 0 -106 0 -107 136 6 c118 5 136 3 141 -11 12 -30 -17 -157
-53 -230 -60 -123 -164 -213 -308 -269 -39 -15 -73 -28 -75 -30 -2 -1 13 -21
33 -43 20 -22 49 -65 63 -95 31 -62 28 -62 128 -12 252 126 387 315 428 602
l13 90 80 0 79 0 5 -300 c6 -342 5 -340 88 -372 38 -15 76 -18 207 -18 102 0
176 5 204 14 89 26 134 103 146 250 3 36 8 78 10 92 3 23 -1 27 -49 42 -29 10
-74 28 -99 41 l-45 24 -6 -21 c-3 -12 -6 -49 -6 -82 0 -85 -16 -134 -46 -145
-34 -13 -140 -13 -165 0 -18 10 -19 24 -19 247 l0 235 168 -6 c92 -4 179 -9
195 -12 l27 -6 0 112 0 111 -112 -3 -113 -3 -3 94 -3 94 131 -6 130 -6 0 107
0 107 -131 -4 -132 -3 5 86 6 86 -108 0 -108 0 6 -85 5 -85 -232 0 -232 0 2
83 2 82 -101 3 -102 3 0 -86z m658 -377 l-3 -93 -227 -3 -228 -2 0 95 0 95
230 0 231 0 -3 -92z"/>
</g>
</svg>
