<?xml version="1.0" standalone="no"?>
<!DOCTYPE svg PUBLIC "-//W3C//DTD SVG 20010904//EN"
 "http://www.w3.org/TR/2001/REC-SVG-20010904/DTD/svg10.dtd">
<svg version="1.0" xmlns="http://www.w3.org/2000/svg"
 width="200.000000pt" height="200.000000pt" viewBox="0 0 200.000000 200.000000"
 preserveAspectRatio="xMidYMid meet">
<metadata>
Created by potrace 1.10, written by Peter Selinger 2001-2011
</metadata>
<g transform="translate(0.000000,200.000000) scale(0.100000,-0.100000)"
fill="#000000" stroke="none">
<path d="M534 1971 c-2 -2 -4 -53 -4 -113 l0 -109 200 7 c230 8 216 15 174
-91 l-26 -65 -152 0 -151 0 2 -572 3 -573 107 4 106 4 -22 -31 c-36 -50 -120
-119 -224 -184 -89 -55 -97 -62 -85 -79 86 -122 115 -158 126 -154 7 3 58 34
112 70 98 65 280 226 280 249 0 6 -34 34 -75 61 -41 28 -75 53 -75 58 0 4 94
7 210 7 116 0 210 -3 210 -7 0 -5 -27 -25 -59 -46 -92 -59 -92 -60 -35 -118
70 -73 190 -167 281 -221 101 -61 110 -64 117 -40 4 10 31 56 61 102 30 46 54
84 52 84 -1 1 -45 22 -97 47 -98 48 -193 113 -245 169 l-30 33 123 -7 122 -7
0 576 0 575 -214 2 -213 3 30 79 31 79 223 -7 223 -6 0 112 0 113 -541 0
c-297 0 -543 -2 -545 -4z m776 -641 l0 -60 -252 2 -253 3 -3 58 -3 57 256 0
255 0 0 -60z m-2 -302 l-3 -63 -250 0 -250 0 -3 63 -3 62 256 0 256 0 -3 -62z
m2 -303 l0 -65 -255 0 -255 0 0 58 c0 32 3 62 7 65 3 4 118 7 255 7 l248 0 0
-65z"/>
</g>
</svg>
