<?xml version="1.0" standalone="no"?>
<!DOCTYPE svg PUBLIC "-//W3C//DTD SVG 20010904//EN"
 "http://www.w3.org/TR/2001/REC-SVG-20010904/DTD/svg10.dtd">
<svg version="1.0" xmlns="http://www.w3.org/2000/svg"
 width="200.000000pt" height="200.000000pt" viewBox="0 0 200.000000 200.000000"
 preserveAspectRatio="xMidYMid meet">
<metadata>
Created by potrace 1.10, written by Peter Selinger 2001-2011
</metadata>
<g transform="translate(0.000000,200.000000) scale(0.100000,-0.100000)"
fill="#000000" stroke="none">
<path d="M628 1904 l4 -76 -146 4 -146 3 0 -102 0 -102 145 6 145 6 0 -56 0
-57 110 0 111 0 -3 53 -3 52 150 0 149 0 -3 -52 -2 -53 111 0 111 0 -2 53 -3
52 182 -2 182 -1 0 101 0 102 -185 -3 -185 -4 7 76 6 76 -113 0 -113 0 6 -75
7 -75 -157 0 -156 0 7 75 7 75 -113 0 -113 0 3 -76z"/>
<path d="M405 1138 l0 -358 233 0 232 0 0 -27 c0 -16 -3 -39 -7 -52 l-6 -24
-279 5 -279 6 3 -101 3 -100 243 2 c141 1 242 -2 242 -7 0 -19 -110 -112 -168
-141 -77 -39 -205 -76 -313 -91 -46 -7 -89 -14 -96 -16 -7 -2 7 -34 38 -85 27
-45 49 -87 49 -93 1 -36 16 -37 120 -11 236 60 430 169 527 297 l20 27 59 -56
c78 -74 208 -158 308 -200 94 -40 306 -97 317 -86 3 5 12 26 19 48 7 22 26 66
41 97 16 32 29 62 29 68 0 5 -15 10 -34 10 -48 0 -190 27 -266 51 -94 30 -177
77 -240 136 l-55 53 285 -1 285 -1 3 100 3 100 -305 -6 c-167 -3 -310 -3 -318
0 -9 4 -12 19 -10 52 l4 46 252 0 251 0 0 358 0 357 -595 0 -595 0 0 -357z
m975 132 l0 -50 -380 0 -380 0 0 50 0 50 380 0 380 0 0 -50z m-2 -267 l3 -53
-380 0 -381 0 0 55 0 55 378 -2 377 -3 3 -52z"/>
</g>
</svg>
