<?xml version="1.0" standalone="no"?>
<!DOCTYPE svg PUBLIC "-//W3C//DTD SVG 20010904//EN"
 "http://www.w3.org/TR/2001/REC-SVG-20010904/DTD/svg10.dtd">
<svg version="1.0" xmlns="http://www.w3.org/2000/svg"
 width="200.000000pt" height="200.000000pt" viewBox="0 0 200.000000 200.000000"
 preserveAspectRatio="xMidYMid meet">
<metadata>
Created by potrace 1.10, written by Peter Selinger 2001-2011
</metadata>
<g transform="translate(0.000000,200.000000) scale(0.100000,-0.100000)"
fill="#000000" stroke="none">
<path d="M382 1406 c-34 -219 -161 -486 -319 -673 l-54 -64 63 -68 c35 -38 83
-100 108 -139 25 -40 47 -71 50 -71 20 1 169 214 250 357 l52 93 729 -3 729
-3 0 160 0 160 -665 -3 c-366 -2 -665 0 -665 4 0 4 16 61 35 127 20 66 34 121
33 123 -5 5 -303 74 -320 74 -10 0 -18 -22 -26 -74z"/>
</g>
</svg>
