<?xml version="1.0" standalone="no"?>
<!DOCTYPE svg PUBLIC "-//W3C//DTD SVG 20010904//EN"
 "http://www.w3.org/TR/2001/REC-SVG-20010904/DTD/svg10.dtd">
<svg version="1.0" xmlns="http://www.w3.org/2000/svg"
 width="200.000000pt" height="200.000000pt" viewBox="0 0 200.000000 200.000000"
 preserveAspectRatio="xMidYMid meet">
<metadata>
Created by potrace 1.10, written by Peter Selinger 2001-2011
</metadata>
<g transform="translate(0.000000,200.000000) scale(0.100000,-0.100000)"
fill="#000000" stroke="none">
<path d="M810 1480 c-56 -83 -227 -254 -328 -328 -102 -76 -247 -158 -372
-213 -52 -22 -97 -43 -99 -45 -2 -2 14 -30 36 -61 22 -32 50 -77 62 -101 12
-24 28 -45 36 -48 32 -13 378 197 535 323 87 71 214 200 266 273 20 27 39 50
44 50 4 0 20 -16 35 -36 123 -161 296 -312 518 -453 102 -65 297 -171 313
-171 5 0 20 26 33 56 14 31 42 83 63 115 21 33 38 61 38 63 0 2 -28 13 -62 26
-79 28 -255 116 -333 165 -169 107 -380 296 -455 408 l-25 37 -132 0 -132 0
-41 -60z"/>
</g>
</svg>
