<?xml version="1.0" standalone="no"?>
<!DOCTYPE svg PUBLIC "-//W3C//DTD SVG 20010904//EN"
 "http://www.w3.org/TR/2001/REC-SVG-20010904/DTD/svg10.dtd">
<svg version="1.0" xmlns="http://www.w3.org/2000/svg"
 width="200.000000pt" height="200.000000pt" viewBox="0 0 200.000000 200.000000"
 preserveAspectRatio="xMidYMid meet">
<metadata>
Created by potrace 1.10, written by Peter Selinger 2001-2011
</metadata>
<g transform="translate(0.000000,200.000000) scale(0.100000,-0.100000)"
fill="#000000" stroke="none">
<path d="M586 1924 l7 -65 -122 3 -121 3 0 -100 0 -100 123 0 122 0 3 -42 3
-43 -110 0 -111 0 0 -90 0 -89 113 -3 112 -3 0 -55 0 -55 -40 -7 c-22 -3 -84
-10 -138 -14 -93 -7 -98 -8 -93 -28 2 -12 12 -58 22 -104 16 -76 20 -83 38
-78 48 14 458 87 462 83 7 -6 -54 -87 -104 -139 l-45 -47 -56 39 -56 40 -72
-72 -73 -72 33 -20 c108 -65 236 -149 262 -171 l30 -26 -214 6 -213 6 6 -88
c11 -137 -2 -127 140 -119 66 3 190 9 275 12 l154 7 -5 -237 -6 -236 117 0
116 0 -3 240 -4 240 24 0 c12 0 100 7 193 15 248 21 225 25 264 -45 l33 -61
41 33 c23 19 61 49 84 67 l43 32 -49 73 c-74 109 -229 296 -245 296 -4 0 -41
-23 -82 -51 -85 -57 -84 -46 -11 -126 l29 -31 -73 -6 c-166 -12 -259 -15 -259
-8 1 4 25 26 54 50 29 24 94 85 145 136 l92 93 -86 51 c-48 29 -88 52 -91 52
-2 0 -68 -65 -146 -145 l-143 -146 -46 33 -47 33 89 92 c49 51 89 96 89 100 0
4 -34 26 -76 48 -41 22 -79 45 -85 51 -6 8 13 15 64 24 89 16 97 19 97 36 0
24 17 15 78 -41 36 -33 66 -53 74 -50 8 3 32 26 53 51 104 126 155 261 180
487 l7 58 81 -3 82 -3 -3 -90 c-5 -141 -21 -247 -41 -275 -18 -24 -23 -25
-109 -23 l-90 3 13 -44 c7 -24 16 -68 20 -99 8 -64 12 -67 120 -67 126 1 199
29 231 92 8 16 22 60 29 96 16 74 42 364 47 514 l3 98 -363 2 -362 3 0 -109 0
-109 71 7 71 7 -6 -58 c-17 -149 -58 -249 -133 -328 l-48 -50 -3 41 -3 41 -67
-13 c-37 -6 -88 -15 -114 -19 l-48 -6 0 45 0 46 105 0 105 0 0 90 0 90 -110 0
-110 0 0 46 0 46 120 -4 120 -4 0 100 0 101 -126 -3 -126 -3 7 65 7 66 -111 0
-112 0 7 -66z"/>
<path d="M1300 423 c-36 -31 -65 -60 -65 -63 0 -13 148 -132 230 -186 44 -28
115 -69 159 -90 75 -37 79 -38 90 -20 6 10 34 52 63 92 l51 73 -56 21 c-114
43 -262 128 -362 209 -14 11 -29 20 -35 20 -5 0 -39 -25 -75 -56z"/>
<path d="M614 419 c-62 -64 -145 -120 -255 -171 l-87 -41 52 -61 c28 -34 58
-72 67 -86 15 -23 18 -24 45 -11 67 30 228 146 305 221 l84 80 -25 20 c-14 11
-50 38 -81 59 l-56 40 -49 -50z"/>
</g>
</svg>
