<?xml version="1.0" standalone="no"?>
<!DOCTYPE svg PUBLIC "-//W3C//DTD SVG 20010904//EN"
 "http://www.w3.org/TR/2001/REC-SVG-20010904/DTD/svg10.dtd">
<svg version="1.0" xmlns="http://www.w3.org/2000/svg"
 width="200.000000pt" height="200.000000pt" viewBox="0 0 200.000000 200.000000"
 preserveAspectRatio="xMidYMid meet">
<metadata>
Created by potrace 1.10, written by Peter Selinger 2001-2011
</metadata>
<g transform="translate(0.000000,200.000000) scale(0.100000,-0.100000)"
fill="#000000" stroke="none">
<path d="M950 1899 l0 -82 -377 5 -378 5 3 -296 c6 -614 -41 -1018 -145 -1230
l-38 -78 92 -91 92 -92 27 46 c119 204 180 545 197 1114 l2 75 148 3 147 3 0
-171 0 -170 438 0 437 0 0 167 0 168 188 -3 187 -2 0 102 0 103 -190 -4 -190
-3 0 77 0 77 190 -4 190 -3 0 110 0 110 -87 -7 c-49 -3 -224 -7 -390 -7 l-303
-1 0 80 0 80 -120 0 -120 0 0 -81z m-230 -354 l0 -75 -145 0 -145 0 0 75 0 75
145 0 145 0 0 -75z m650 0 l0 -75 -210 0 -210 0 0 75 0 75 210 0 210 0 0 -75z
m-2 -342 l3 -73 -211 0 -210 0 0 75 0 75 208 -2 207 -3 3 -72z"/>
</g>
</svg>
