<?xml version="1.0" standalone="no"?>
<!DOCTYPE svg PUBLIC "-//W3C//DTD SVG 20010904//EN"
 "http://www.w3.org/TR/2001/REC-SVG-20010904/DTD/svg10.dtd">
<svg version="1.0" xmlns="http://www.w3.org/2000/svg"
 width="200.000000pt" height="200.000000pt" viewBox="0 0 200.000000 200.000000"
 preserveAspectRatio="xMidYMid meet">
<metadata>
Created by potrace 1.10, written by Peter Selinger 2001-2011
</metadata>
<g transform="translate(0.000000,200.000000) scale(0.100000,-0.100000)"
fill="#000000" stroke="none">
<path d="M203 1515 c-2 -6 -2 -58 -1 -116 3 -98 4 -104 23 -101 11 2 278 6
593 9 388 4 572 2 572 -5 0 -17 -192 -194 -317 -290 -107 -84 -279 -203 -375
-261 l-36 -22 -30 53 c-26 45 -39 79 -68 176 -2 9 -35 12 -117 12 l-114 0 -18
-67 c-28 -102 -115 -266 -202 -377 -43 -54 -82 -104 -87 -111 -6 -8 15 -41 70
-104 l79 -92 28 33 c65 75 163 237 207 338 l46 107 44 -86 c33 -66 62 -104
124 -166 91 -90 177 -139 306 -174 132 -36 456 -50 821 -34 l156 6 12 61 c7
34 26 92 41 130 l29 68 -37 -5 c-195 -31 -833 -33 -948 -3 -74 18 -174 61
-174 74 0 5 61 48 135 96 251 163 411 293 653 530 89 88 161 164 159 169 -1 5
-29 41 -62 80 l-59 72 -610 -3 c-336 -2 -662 1 -725 5 -80 6 -115 5 -118 -2z"/>
</g>
</svg>
