<?xml version="1.0" standalone="no"?>
<!DOCTYPE svg PUBLIC "-//W3C//DTD SVG 20010904//EN"
 "http://www.w3.org/TR/2001/REC-SVG-20010904/DTD/svg10.dtd">
<svg version="1.0" xmlns="http://www.w3.org/2000/svg"
 width="200.000000pt" height="200.000000pt" viewBox="0 0 200.000000 200.000000"
 preserveAspectRatio="xMidYMid meet">
<metadata>
Created by potrace 1.10, written by Peter Selinger 2001-2011
</metadata>
<g transform="translate(0.000000,200.000000) scale(0.100000,-0.100000)"
fill="#000000" stroke="none">
<path d="M1465 1318 c-66 -66 -218 -188 -234 -188 -18 0 -152 136 -187 189
l-39 61 -123 0 -122 0 31 -62 c48 -95 104 -173 188 -261 159 -167 352 -293
599 -393 85 -34 291 -98 297 -92 2 2 13 28 25 58 12 30 37 84 56 119 38 72 37
75 -35 86 -108 16 -468 146 -486 175 -3 4 18 23 47 41 56 36 155 116 226 181
51 47 57 38 -78 107 l-95 49 -70 -70z"/>
<path d="M318 1108 l-3 -273 -70 -11 c-38 -7 -107 -16 -153 -20 -56 -4 -82
-11 -79 -18 3 -7 13 -58 23 -115 10 -59 23 -105 31 -108 30 -12 615 120 841
189 l102 31 0 109 c0 59 -4 108 -9 108 -5 0 -28 -7 -52 -16 -53 -19 -344 -94
-364 -94 -13 0 -15 36 -15 245 l0 245 -125 0 -125 0 -2 -272z"/>
</g>
</svg>
