<?xml version="1.0" standalone="no"?>
<!DOCTYPE svg PUBLIC "-//W3C//DTD SVG 20010904//EN"
 "http://www.w3.org/TR/2001/REC-SVG-20010904/DTD/svg10.dtd">
<svg version="1.0" xmlns="http://www.w3.org/2000/svg"
 width="200.000000pt" height="200.000000pt" viewBox="0 0 200.000000 200.000000"
 preserveAspectRatio="xMidYMid meet">
<metadata>
Created by potrace 1.10, written by Peter Selinger 2001-2011
</metadata>
<g transform="translate(0.000000,200.000000) scale(0.100000,-0.100000)"
fill="#000000" stroke="none">
<path d="M100 1495 l0 -160 102 6 c134 9 433 11 440 3 7 -7 -29 -115 -66 -199
-80 -178 -294 -424 -472 -542 l-90 -60 52 -74 c29 -41 70 -108 90 -149 21 -41
39 -77 41 -79 5 -8 123 88 211 173 256 247 480 578 573 845 l32 93 471 -4
c259 -3 478 -7 486 -9 13 -3 15 20 18 156 l2 160 -945 0 -945 0 0 -160z"/>
</g>
</svg>
