<?xml version="1.0" standalone="no"?>
<!DOCTYPE svg PUBLIC "-//W3C//DTD SVG 20010904//EN"
 "http://www.w3.org/TR/2001/REC-SVG-20010904/DTD/svg10.dtd">
<svg version="1.0" xmlns="http://www.w3.org/2000/svg"
 width="200.000000pt" height="200.000000pt" viewBox="0 0 200.000000 200.000000"
 preserveAspectRatio="xMidYMid meet">
<metadata>
Created by potrace 1.10, written by Peter Selinger 2001-2011
</metadata>
<g transform="translate(0.000000,200.000000) scale(0.100000,-0.100000)"
fill="#000000" stroke="none">
<path d="M872 1888 l3 -83 -232 1 -233 1 0 -105 0 -105 98 6 c54 3 103 3 109
-1 14 -9 65 -171 57 -183 -3 -6 -47 -7 -112 -3 l-107 7 0 -702 0 -701 105 0
105 0 -3 605 -2 605 115 0 115 0 0 -60 0 -60 -95 0 -95 0 0 -90 0 -90 95 0 95
0 0 -60 0 -60 -80 0 -80 0 0 -289 c0 -159 -3 -296 -6 -305 -5 -14 6 -16 85
-16 l91 0 0 50 0 50 165 0 165 0 0 255 0 255 -75 0 -75 0 0 60 0 60 90 0 90 0
0 90 0 90 -90 0 -90 0 0 60 0 61 108 -3 107 -3 3 -481 c2 -440 1 -483 -15
-495 -12 -10 -44 -13 -126 -11 l-109 2 6 -22 c5 -20 11 -51 32 -165 4 -22 9
-23 103 -23 116 0 196 13 231 38 14 10 35 38 48 62 l22 44 0 624 0 624 -102
-3 c-66 -3 -102 0 -101 6 5 21 58 161 66 172 5 8 33 10 97 6 l90 -6 0 105 0
105 -216 -5 -216 -5 3 87 4 86 -123 0 -124 0 4 -82z m251 -284 c7 -7 -18 -93
-44 -152 l-18 -43 -82 3 -82 3 -28 89 c-15 50 -26 93 -23 98 6 9 268 11 277 2z
m-63 -1054 l0 -100 -80 0 -80 0 0 100 0 100 80 0 80 0 0 -100z"/>
</g>
</svg>
