<?xml version="1.0" standalone="no"?>
<!DOCTYPE svg PUBLIC "-//W3C//DTD SVG 20010904//EN"
 "http://www.w3.org/TR/2001/REC-SVG-20010904/DTD/svg10.dtd">
<svg version="1.0" xmlns="http://www.w3.org/2000/svg"
 width="200.000000pt" height="200.000000pt" viewBox="0 0 200.000000 200.000000"
 preserveAspectRatio="xMidYMid meet">
<metadata>
Created by potrace 1.10, written by Peter Selinger 2001-2011
</metadata>
<g transform="translate(0.000000,200.000000) scale(0.100000,-0.100000)"
fill="#000000" stroke="none">
<path d="M918 1789 l5 -202 -157 5 -156 4 0 -116 0 -115 155 3 155 3 0 -194 0
-195 -112 -21 c-62 -11 -137 -23 -165 -27 -39 -5 -53 -11 -53 -23 0 -29 33
-216 40 -224 4 -4 67 8 141 28 74 19 137 35 142 35 4 0 7 -108 7 -240 0 -227
-1 -241 -20 -260 -22 -22 -95 -26 -200 -11 -30 5 -57 7 -59 5 -2 -2 3 -32 12
-66 9 -35 19 -86 23 -114 l6 -51 82 -6 c98 -8 249 6 297 26 18 8 42 24 52 35
42 47 46 82 47 424 0 302 1 327 18 332 9 2 71 21 136 41 l119 37 -7 105 c-3
59 -8 108 -9 110 -2 2 -30 -6 -63 -17 -32 -12 -89 -29 -126 -40 l-68 -19 0
165 0 164 135 0 136 0 -3 113 -3 112 -134 -4 -133 -3 3 201 4 201 -126 0 -127
0 6 -201z"/>
</g>
</svg>
