<?xml version="1.0" standalone="no"?>
<!DOCTYPE svg PUBLIC "-//W3C//DTD SVG 20010904//EN"
 "http://www.w3.org/TR/2001/REC-SVG-20010904/DTD/svg10.dtd">
<svg version="1.0" xmlns="http://www.w3.org/2000/svg"
 width="200.000000pt" height="200.000000pt" viewBox="0 0 200.000000 200.000000"
 preserveAspectRatio="xMidYMid meet">
<metadata>
Created by potrace 1.10, written by Peter Selinger 2001-2011
</metadata>
<g transform="translate(0.000000,200.000000) scale(0.100000,-0.100000)"
fill="#000000" stroke="none">
<path d="M874 1893 l-19 -88 -250 2 -250 3 0 -105 0 -105 203 0 204 0 -21 -32
c-11 -18 -39 -57 -61 -85 l-41 -53 -78 82 -78 83 -77 -58 c-42 -32 -76 -61
-76 -65 0 -4 18 -26 41 -47 22 -22 59 -61 81 -87 l39 -47 -68 -45 c-37 -24
-95 -57 -128 -72 -33 -16 -61 -29 -63 -30 -2 -1 12 -22 31 -47 19 -25 44 -66
56 -91 13 -25 27 -46 32 -46 6 0 33 15 62 33 29 18 58 37 66 42 12 7 13 -28 9
-228 l-5 -236 45 6 c40 5 45 4 39 -11 -31 -81 -173 -230 -273 -286 -32 -18
-60 -34 -62 -36 -2 -1 19 -23 46 -48 27 -26 62 -64 77 -86 15 -22 32 -40 38
-40 18 0 117 80 184 150 68 70 183 224 183 244 0 6 -40 33 -90 59 -49 27 -90
50 -90 53 0 2 74 4 165 4 l165 0 -2 -167 -3 -168 -121 0 -120 0 23 -73 c13
-40 23 -88 23 -106 l0 -33 83 -7 c96 -7 231 5 272 25 15 8 38 27 49 42 20 27
21 44 24 258 l4 230 201 -2 200 -1 -2 226 c-1 124 0 226 3 226 4 0 43 -18 88
-41 82 -41 97 -41 98 0 0 8 18 52 41 99 22 46 39 85 37 87 -2 1 -28 10 -58 20
-54 17 -207 89 -223 104 -4 4 32 46 80 94 48 47 85 88 83 90 -3 2 -43 30 -90
61 l-85 57 118 -3 117 -3 0 110 0 110 -97 -6 c-122 -9 -548 -11 -555 -4 -3 3
5 39 17 80 l23 73 -77 6 c-42 4 -97 9 -122 11 l-45 5 -20 -87z m618 -321 c-11
-15 -46 -54 -78 -85 l-58 -57 -29 27 c-16 16 -49 54 -74 86 l-44 57 151 0 151
0 -19 -28z m-439 -93 c22 -33 61 -84 89 -114 l50 -55 -191 0 -191 0 59 74 c32
41 73 100 92 132 28 50 34 55 43 40 6 -10 28 -44 49 -77z m277 -399 l0 -50
-315 0 -315 0 0 50 0 50 315 0 315 0 0 -50z m-5 -270 l0 -55 -312 -3 -313 -2
0 60 0 60 313 -2 312 -3 0 -55z"/>
<path d="M1322 514 l-81 -57 31 -46 c74 -108 348 -357 368 -334 3 4 27 37 52
73 25 36 55 74 67 84 11 11 21 23 21 27 0 4 -28 24 -62 45 -89 53 -175 123
-246 199 -34 36 -63 65 -65 65 -2 0 -40 -25 -85 -56z"/>
</g>
</svg>
