<?xml version="1.0" standalone="no"?>
<!DOCTYPE svg PUBLIC "-//W3C//DTD SVG 20010904//EN"
 "http://www.w3.org/TR/2001/REC-SVG-20010904/DTD/svg10.dtd">
<svg version="1.0" xmlns="http://www.w3.org/2000/svg"
 width="200.000000pt" height="200.000000pt" viewBox="0 0 200.000000 200.000000"
 preserveAspectRatio="xMidYMid meet">
<metadata>
Created by potrace 1.10, written by Peter Selinger 2001-2011
</metadata>
<g transform="translate(0.000000,200.000000) scale(0.100000,-0.100000)"
fill="#000000" stroke="none">
<path d="M680 1904 l0 -85 -125 3 -125 3 0 -105 0 -105 125 4 125 3 0 -51 0
-51 114 0 113 0 -5 50 -5 50 118 0 118 0 -6 -85 -6 -85 114 0 115 0 0 86 0 87
115 -5 116 -5 -3 105 -3 105 -112 -2 -113 -2 0 85 0 86 -115 0 -114 0 6 -85 6
-85 -118 0 -117 0 3 85 4 85 -112 0 -113 0 0 -86z"/>
<path d="M607 1408 c-39 -127 -86 -222 -158 -318 l-60 -80 34 -42 c19 -24 49
-69 67 -100 17 -32 35 -58 38 -58 4 0 23 23 42 50 19 27 39 50 44 50 5 0 7
-133 4 -310 l-5 -310 93 0 93 0 3 62 3 63 170 -2 170 -1 0 319 0 319 -222 0
c-123 0 -223 2 -223 4 0 2 12 29 26 60 l25 56 260 0 259 0 0 -27 c0 -142 -24
-579 -36 -671 -18 -144 -30 -185 -61 -214 -21 -20 -35 -23 -101 -23 -42 0
-107 3 -143 8 l-67 7 19 -72 c10 -39 19 -83 19 -98 0 -14 6 -34 13 -44 12 -17
28 -18 168 -14 135 3 159 7 196 26 130 68 181 279 202 849 6 147 13 318 16
378 l5 110 -331 -3 -331 -3 7 28 c3 15 7 32 8 37 2 6 -175 53 -213 56 -3 0
-18 -42 -33 -92z m358 -673 l0 -130 -82 -3 -83 -3 0 136 0 136 83 -3 82 -3 0
-130z"/>
</g>
</svg>
