<?xml version="1.0" standalone="no"?>
<!DOCTYPE svg PUBLIC "-//W3C//DTD SVG 20010904//EN"
 "http://www.w3.org/TR/2001/REC-SVG-20010904/DTD/svg10.dtd">
<svg version="1.0" xmlns="http://www.w3.org/2000/svg"
 width="200.000000pt" height="200.000000pt" viewBox="0 0 200.000000 200.000000"
 preserveAspectRatio="xMidYMid meet">
<metadata>
Created by potrace 1.10, written by Peter Selinger 2001-2011
</metadata>
<g transform="translate(0.000000,200.000000) scale(0.100000,-0.100000)"
fill="#000000" stroke="none">
<path d="M766 1978 c-2 -7 -12 -44 -21 -83 -41 -174 -137 -378 -245 -524 -33
-45 -60 -83 -60 -85 0 -2 38 -42 85 -89 l85 -85 34 42 c43 52 135 198 160 254
l19 42 255 0 255 0 -6 -253 c-10 -405 -44 -747 -85 -869 -26 -78 -51 -92 -164
-90 -51 1 -126 6 -166 13 -41 6 -75 9 -77 7 -3 -2 4 -32 15 -66 11 -33 22 -84
26 -112 9 -66 18 -70 188 -70 319 0 377 52 436 384 37 207 66 660 73 1119 l2
167 -322 0 c-178 0 -323 3 -323 7 0 3 18 62 41 131 22 68 38 127 35 129 -5 5
-200 43 -224 43 -7 0 -14 -6 -16 -12z"/>
<path d="M770 1144 c-41 -24 -79 -45 -83 -46 -4 -2 26 -68 67 -148 41 -80 96
-203 122 -275 26 -71 49 -132 50 -134 5 -7 204 104 204 114 0 22 -76 204 -129
309 -70 137 -127 226 -143 225 -7 0 -47 -20 -88 -45z"/>
</g>
</svg>
