<?xml version="1.0" standalone="no"?>
<!DOCTYPE svg PUBLIC "-//W3C//DTD SVG 20010904//EN"
 "http://www.w3.org/TR/2001/REC-SVG-20010904/DTD/svg10.dtd">
<svg version="1.0" xmlns="http://www.w3.org/2000/svg"
 width="200.000000pt" height="200.000000pt" viewBox="0 0 200.000000 200.000000"
 preserveAspectRatio="xMidYMid meet">
<metadata>
Created by potrace 1.10, written by Peter Selinger 2001-2011
</metadata>
<g transform="translate(0.000000,200.000000) scale(0.100000,-0.100000)"
fill="#000000" stroke="none">
<path d="M864 1649 l8 -81 -431 3 -431 4 0 -110 0 -110 83 7 c45 3 238 7 430
7 l347 1 0 -46 0 -45 -310 3 -310 3 0 -482 0 -483 753 0 752 0 0 483 0 482
-318 -3 -318 -3 3 43 3 43 360 0 c198 0 394 -2 435 -4 l75 -4 3 109 3 109
-441 -3 -441 -4 7 81 7 81 -138 0 -138 0 7 -81z m646 -604 l0 -45 -507 2 -508
3 -3 28 c-7 60 -38 57 513 57 l505 0 0 -45z m0 -240 l0 -45 -507 2 -508 3 -3
28 c-7 60 -38 57 513 57 l505 0 0 -45z m0 -250 l0 -45 -507 2 -508 3 -3 28
c-7 60 -38 57 513 57 l505 0 0 -45z"/>
</g>
</svg>
