<?xml version="1.0" standalone="no"?>
<!DOCTYPE svg PUBLIC "-//W3C//DTD SVG 20010904//EN"
 "http://www.w3.org/TR/2001/REC-SVG-20010904/DTD/svg10.dtd">
<svg version="1.0" xmlns="http://www.w3.org/2000/svg"
 width="200.000000pt" height="200.000000pt" viewBox="0 0 200.000000 200.000000"
 preserveAspectRatio="xMidYMid meet">
<metadata>
Created by potrace 1.10, written by Peter Selinger 2001-2011
</metadata>
<g transform="translate(0.000000,200.000000) scale(0.100000,-0.100000)"
fill="#000000" stroke="none">
<path d="M130 1511 l0 -94 120 7 120 7 0 -77 0 -77 -180 5 -180 5 0 -102 0
-102 180 5 180 5 0 -82 0 -83 -120 4 -120 3 0 -95 0 -95 370 3 370 4 0 -72 0
-71 -405 3 -405 3 0 -100 0 -100 407 3 406 3 -6 -151 -6 -151 122 3 122 3 -5
85 c-2 47 -5 112 -5 145 l0 60 425 1 425 1 3 99 3 99 -428 0 -428 0 0 65 0 65
388 0 387 0 0 95 0 95 -125 -3 -125 -4 0 83 0 82 180 -5 180 -5 0 101 0 102
-180 -4 -181 -5 3 74 3 74 123 -4 122 -3 0 93 0 94 -870 0 -870 0 0 -94z m738
-158 l3 -73 -141 0 -140 0 0 68 c0 38 3 72 7 76 4 3 66 5 137 4 l131 -3 3 -72z
m532 2 l0 -76 -152 3 -153 3 -3 59 c-2 32 -1 65 2 72 4 11 38 14 156 14 l150
0 0 -75z m-530 -345 l0 -80 -140 0 -140 0 0 80 0 80 140 0 140 0 0 -80z m530
0 l0 -81 -152 3 -153 3 -3 64 c-2 35 -1 70 2 77 4 11 38 14 156 14 l150 0 0
-80z"/>
</g>
</svg>
