<?xml version="1.0" standalone="no"?>
<!DOCTYPE svg PUBLIC "-//W3C//DTD SVG 20010904//EN"
 "http://www.w3.org/TR/2001/REC-SVG-20010904/DTD/svg10.dtd">
<svg version="1.0" xmlns="http://www.w3.org/2000/svg"
 width="200.000000pt" height="200.000000pt" viewBox="0 0 200.000000 200.000000"
 preserveAspectRatio="xMidYMid meet">
<metadata>
Created by potrace 1.10, written by Peter Selinger 2001-2011
</metadata>
<g transform="translate(0.000000,200.000000) scale(0.100000,-0.100000)"
fill="#000000" stroke="none">
<path d="M1348 1514 l4 -76 -166 3 -166 4 0 -97 0 -98 53 0 53 0 27 -62 c14
-35 33 -82 42 -106 l15 -44 -111 3 -111 3 -1 -97 -2 -97 183 0 182 0 0 -70 0
-70 -160 0 -161 0 3 -97 3 -97 158 3 157 3 0 -106 0 -106 115 0 116 0 -7 106
-7 106 176 -4 177 -3 0 98 0 97 -175 0 -175 0 0 70 0 70 205 0 205 0 0 98 0
97 -131 -4 -130 -3 19 38 c10 22 29 69 42 107 l24 67 63 0 63 0 0 98 0 97
-181 -4 -181 -3 4 76 3 76 -115 0 -115 0 3 -76z m237 -300 c-3 -20 -18 -68
-32 -105 l-25 -69 -63 0 -63 0 -11 46 c-7 26 -23 73 -36 105 l-24 59 131 0
130 0 -7 -36z"/>
<path d="M184 1320 c-2 -349 -42 -554 -139 -705 l-35 -56 30 -26 c17 -14 51
-55 77 -90 l46 -65 18 23 c38 51 101 181 134 280 l35 104 -2 -209 -3 -208 44
6 c24 3 159 6 300 6 l256 0 0 258 0 257 -290 0 -289 0 3 50 c1 27 5 53 7 57 3
5 133 8 290 8 l284 0 0 258 0 257 -382 0 -383 0 -1 -205z m554 -57 l-3 -78
-160 -3 c-87 -1 -164 -1 -170 1 -6 3 -9 34 -7 81 l4 76 169 0 170 0 -3 -77z
m12 -628 l0 -85 -110 0 -110 0 0 85 0 85 110 0 110 0 0 -85z"/>
</g>
</svg>
