<?xml version="1.0" standalone="no"?>
<!DOCTYPE svg PUBLIC "-//W3C//DTD SVG 20010904//EN"
 "http://www.w3.org/TR/2001/REC-SVG-20010904/DTD/svg10.dtd">
<svg version="1.0" xmlns="http://www.w3.org/2000/svg"
 width="200.000000pt" height="200.000000pt" viewBox="0 0 200.000000 200.000000"
 preserveAspectRatio="xMidYMid meet">
<metadata>
Created by potrace 1.10, written by Peter Selinger 2001-2011
</metadata>
<g transform="translate(0.000000,200.000000) scale(0.100000,-0.100000)"
fill="#000000" stroke="none">
<path d="M25 1307 l0 -197 74 0 74 0 -6 -150 -6 -150 491 0 c270 0 488 -3 485
-7 -4 -3 11 -26 33 -49 22 -24 48 -60 57 -79 9 -19 24 -35 32 -35 30 0 299
140 401 208 107 72 199 147 190 154 -3 2 -36 30 -73 61 -38 31 -71 57 -76 57
-4 0 -23 -16 -42 -36 -42 -44 -172 -131 -264 -177 -102 -50 -234 -101 -243
-93 -11 12 -15 286 -4 286 12 0 64 -58 88 -99 l18 -31 105 56 c100 53 242 145
306 199 l30 25 -44 37 c-25 21 -54 46 -65 55 -20 17 -18 18 69 15 l90 -2 0
-123 0 -122 110 0 110 0 -2 195 -2 196 -968 2 -968 2 0 -198z m545 43 c-8 -5
-12 -11 -10 -13 36 -27 112 -77 118 -77 5 0 21 13 36 29 l27 28 -33 21 -33 22
429 0 429 0 -19 -22 c-43 -49 -322 -208 -365 -208 -9 0 -10 18 -5 70 l6 70
-95 0 -95 0 6 -55 c7 -60 2 -65 -36 -35 -33 26 -41 25 -73 -8 l-26 -27 53 -42
c49 -38 55 -40 70 -25 15 15 16 10 16 -61 l0 -77 -52 0 -52 0 33 34 33 34 -54
45 c-29 25 -66 56 -82 69 l-29 25 76 64 c43 35 77 66 77 69 -1 3 -19 18 -41
33 l-40 28 -72 -66 c-39 -36 -76 -65 -82 -65 -7 0 -57 27 -113 61 l-101 60
-36 -26 c-19 -15 -33 -30 -31 -34 3 -4 45 -31 95 -61 50 -29 91 -56 91 -59 0
-14 -203 -111 -231 -111 -5 0 -9 27 -9 61 l0 60 31 -23 c17 -13 37 -27 45 -33
10 -7 22 -2 45 21 l31 31 -52 38 c-45 33 -54 36 -76 27 -22 -11 -24 -10 -24
18 0 30 -1 30 -55 30 l-55 0 0 45 0 45 173 0 c110 0 167 -4 157 -10z m200
-336 c36 -31 66 -61 68 -65 2 -5 -17 -9 -42 -9 -35 0 -44 3 -40 14 5 13 -77
86 -96 86 -6 0 -28 -15 -70 -47 -2 -2 9 -15 25 -28 l30 -24 -147 -1 -148 0 0
48 1 47 35 -38 c28 -30 40 -37 57 -31 27 8 162 76 202 102 36 23 39 21 125
-54z"/>
<path d="M1763 761 c-100 -93 -279 -199 -472 -277 -130 -54 -135 -54 -127 -10
6 33 6 33 -35 40 -22 4 -67 17 -99 30 l-58 24 -7 -45 c-10 -70 -27 -80 -146
-88 -57 -4 -174 -5 -260 -3 -167 3 -189 10 -189 54 0 27 12 30 155 39 141 10
349 42 479 75 65 16 121 30 124 30 4 0 -27 33 -67 74 l-74 75 -36 -18 c-74
-38 -284 -76 -474 -88 l-109 -6 7 46 7 47 -117 0 -118 0 7 -37 c3 -21 6 -111
6 -200 0 -154 1 -163 23 -188 37 -43 106 -55 347 -62 239 -6 484 8 527 31 34
17 65 51 85 90 l15 28 34 -40 c19 -23 45 -61 57 -86 l23 -45 42 16 c96 36 308
145 397 203 103 68 260 189 260 200 0 7 -145 140 -151 140 -2 -1 -27 -23 -56
-49z"/>
</g>
</svg>
