<?xml version="1.0" standalone="no"?>
<!DOCTYPE svg PUBLIC "-//W3C//DTD SVG 20010904//EN"
 "http://www.w3.org/TR/2001/REC-SVG-20010904/DTD/svg10.dtd">
<svg version="1.0" xmlns="http://www.w3.org/2000/svg"
 width="200.000000pt" height="200.000000pt" viewBox="0 0 200.000000 200.000000"
 preserveAspectRatio="xMidYMid meet">
<metadata>
Created by potrace 1.10, written by Peter Selinger 2001-2011
</metadata>
<g transform="translate(0.000000,200.000000) scale(0.100000,-0.100000)"
fill="#000000" stroke="none">
<path d="M1128 1126 c2 -799 1 -864 -14 -877 -19 -16 -170 -16 -304 0 -41 4
-77 7 -79 5 -2 -2 8 -45 23 -96 14 -51 26 -103 26 -114 0 -28 44 -34 245 -34
177 0 241 14 291 64 18 18 37 50 43 72 6 25 11 358 13 942 l3 902 -125 0 -125
0 3 -864z"/>
<path d="M625 1175 l0 -665 125 0 125 0 -2 662 -3 663 -122 3 -123 3 0 -666z"/>
</g>
</svg>
