<?xml version="1.0" standalone="no"?>
<!DOCTYPE svg PUBLIC "-//W3C//DTD SVG 20010904//EN"
 "http://www.w3.org/TR/2001/REC-SVG-20010904/DTD/svg10.dtd">
<svg version="1.0" xmlns="http://www.w3.org/2000/svg"
 width="200.000000pt" height="200.000000pt" viewBox="0 0 200.000000 200.000000"
 preserveAspectRatio="xMidYMid meet">
<metadata>
Created by potrace 1.10, written by Peter Selinger 2001-2011
</metadata>
<g transform="translate(0.000000,200.000000) scale(0.100000,-0.100000)"
fill="#000000" stroke="none">
<path d="M885 1909 l7 -81 -201 4 -201 3 0 -100 0 -100 502 2 503 3 0 97 0 97
-192 -3 -193 -3 0 81 0 81 -116 0 -116 0 7 -81z"/>
<path d="M1057 1585 c-46 -72 -48 -73 -117 -20 l-62 48 -49 -49 c-27 -26 -49
-51 -49 -55 0 -4 25 -25 55 -48 30 -23 55 -46 55 -51 0 -10 -108 -90 -122 -90
-5 0 -8 62 -7 138 l1 137 -96 3 -96 3 0 -296 0 -295 166 0 167 0 -7 -37 c-3
-21 -6 -44 -6 -52 0 -11 -32 -13 -182 -9 l-183 4 0 -443 0 -443 107 0 107 0
-6 207 c-6 213 1 251 26 136 8 -32 15 -61 17 -64 3 -6 296 51 345 66 14 5 19
-2 25 -32 4 -21 8 -41 11 -45 2 -4 29 4 60 17 30 14 57 25 59 25 8 0 3 -75 -5
-88 -12 -19 -74 -25 -166 -14 -44 5 -81 8 -83 7 -1 -1 5 -21 13 -45 8 -24 18
-67 22 -97 l6 -55 146 4 c121 2 153 6 186 23 73 36 73 40 77 465 l3 375 -199
-3 -198 -4 7 43 c4 24 9 47 12 52 2 4 74 7 159 7 l154 0 0 285 c0 157 0 288 0
293 0 4 -43 8 -95 10 l-94 3 -3 -135 -3 -134 -48 42 -49 42 46 54 46 55 -37
33 c-21 19 -49 42 -63 52 l-26 18 -27 -43z m163 -345 l0 -70 -181 0 c-103 0
-179 4 -177 9 2 5 36 35 76 66 l74 58 52 -52 c28 -28 54 -51 58 -51 3 0 25 25
48 55 23 30 44 55 46 55 2 0 4 -31 4 -70z m-412 -12 c17 -22 32 -44 32 -50 0
-5 -17 -8 -37 -6 -38 3 -38 3 -41 51 -2 26 1 47 5 46 4 0 23 -18 41 -41z m41
-510 c0 -13 -13 -68 -27 -123 -27 -99 -27 -100 -59 -103 l-33 -3 0 125 0 126
60 0 c56 0 60 -2 59 -22z m430 -120 l0 -143 -18 50 c-10 28 -32 80 -49 117
l-30 66 -63 -23 c-35 -12 -65 -27 -67 -33 -2 -6 6 -29 18 -52 12 -23 19 -44
17 -46 -2 -3 -27 -7 -55 -11 l-50 -6 18 69 c11 38 24 88 30 112 l11 42 119 0
120 0 -1 -142z"/>
</g>
</svg>
