<?xml version="1.0" encoding="UTF-8" standalone="no"?>
<svg
   xmlns:dc="http://purl.org/dc/elements/1.1/"
   xmlns:cc="http://creativecommons.org/ns#"
   xmlns:rdf="http://www.w3.org/1999/02/22-rdf-syntax-ns#"
   xmlns:svg="http://www.w3.org/2000/svg"
   xmlns="http://www.w3.org/2000/svg"
   id="svg2"
   preserveAspectRatio="xMidYMid meet"
   viewBox="0 0 200.000000 200.000000"
   height="200.000000pt"
   width="200.000000pt"
   version="1.0">
  <defs
     id="defs16" />
  <metadata
     id="metadata4">
Created by potrace 1.10, written by Peter Selinger 2001-2011
<rdf:RDF>
  <cc:Work
     rdf:about="">
    <dc:format>image/svg+xml</dc:format>
    <dc:type
       rdf:resource="http://purl.org/dc/dcmitype/StillImage" />
    <dc:title></dc:title>
  </cc:Work>
</rdf:RDF>
</metadata>
  <path
     id="path4236"
     d="m 144.25156,8.309375 c -32.42399,7.441573 -64.849442,11.1625 -97.273434,11.1625 l 4.784376,14.351562 C 91.096526,32.760356 124.31798,28.774093 151.42656,21.864062 Z m -6.37968,22.325 c -3.72079,11.693899 -9.56752,23.654247 -17.54063,35.879687 l 13.55469,7.174997 c 6.91003,-10.099273 13.02209,-22.855624 18.3375,-38.270309 z m -38.270314,5.58125 -13.554688,3.985937 c 3.720784,8.504654 6.378816,17.806974 7.97344,27.906251 L 108.37188,64.121875 C 106.77726,54.022598 103.85389,44.720279 99.601566,36.215625 Z M 58.939062,39.404688 47.776566,46.58125 c 4.783872,6.378491 8.770136,12.755885 11.959376,19.134375 l 12.756248,-7.175 C 68.771398,51.630594 64.25447,45.251637 58.939062,39.404688 Z m -9.568744,43.054683 0,13.554684 43.05468,0 0,20.729685 -48.635936,0 0,14.35157 48.635936,0 0,38.27187 -27.90468,0 0,-29.50156 -15.15,0 0,43.85312 86.907812,0 0,7.97188 15.14843,0 0,-51.825 -15.14843,0 0,29.50156 -28.70313,0 0,-38.27187 48.63594,0 0,-14.35157 -48.63594,0 0,-20.729685 43.05469,0 0,-13.554684 z"
     style="font-style:normal;font-weight:normal;font-size:medium;line-height:125%;font-family:sans-serif;letter-spacing:0px;word-spacing:0px;fill:#000000;fill-opacity:1;stroke:none;stroke-width:1px;stroke-linecap:butt;stroke-linejoin:miter;stroke-opacity:1" />
</svg>
