<?xml version="1.0" standalone="no"?>
<!DOCTYPE svg PUBLIC "-//W3C//DTD SVG 20010904//EN"
 "http://www.w3.org/TR/2001/REC-SVG-20010904/DTD/svg10.dtd">
<svg version="1.0" xmlns="http://www.w3.org/2000/svg"
 width="200.000000pt" height="200.000000pt" viewBox="0 0 200.000000 200.000000"
 preserveAspectRatio="xMidYMid meet">
<metadata>
Created by potrace 1.10, written by Peter Selinger 2001-2011
</metadata>
<g transform="translate(0.000000,200.000000) scale(0.100000,-0.100000)"
fill="#000000" stroke="none">
<path d="M75 1045 l0 -300 935 0 935 0 0 300 0 300 -935 0 -935 0 0 -300z
m1075 -5 l0 -90 -150 0 -150 0 0 90 0 90 150 0 150 0 0 -90z m540 0 l0 -90
-155 0 -155 0 0 90 0 90 155 0 155 0 0 -90z m-1062 -7 l3 -83 -156 0 -155 0 0
78 c0 43 3 82 7 86 4 3 72 5 152 4 l146 -3 3 -82z"/>
</g>
</svg>
