<?xml version="1.0" standalone="no"?>
<!DOCTYPE svg PUBLIC "-//W3C//DTD SVG 20010904//EN"
 "http://www.w3.org/TR/2001/REC-SVG-20010904/DTD/svg10.dtd">
<svg version="1.0" xmlns="http://www.w3.org/2000/svg"
 width="200.000000pt" height="200.000000pt" viewBox="0 0 200.000000 200.000000"
 preserveAspectRatio="xMidYMid meet">
<metadata>
Created by potrace 1.10, written by Peter Selinger 2001-2011
</metadata>
<g transform="translate(0.000000,200.000000) scale(0.100000,-0.100000)"
fill="#000000" stroke="none">
<path d="M894 1315 c0 -183 -4 -236 -21 -316 -19 -88 -58 -198 -67 -188 -3 4
-15 122 -16 160 0 14 -13 12 -87 -16 -49 -18 -98 -36 -110 -39 l-23 -7 0 191
0 192 115 -3 115 -4 0 110 0 110 -355 0 -355 0 0 -110 0 -110 125 4 125 3 -2
-228 -3 -228 -50 -13 c-27 -7 -95 -22 -150 -34 -55 -11 -101 -22 -103 -24 -3
-2 8 -56 24 -120 23 -94 31 -114 44 -109 8 4 87 29 175 55 186 57 330 108 433
155 39 18 72 29 72 24 0 -4 -34 -40 -76 -78 l-75 -70 33 -23 c18 -13 59 -48
91 -79 l59 -55 72 76 c115 119 176 237 209 399 l14 64 41 -56 c23 -31 65 -97
93 -147 57 -101 48 -98 134 -37 27 20 53 36 57 36 5 0 8 -36 8 -80 0 -162 29
-185 235 -185 129 0 144 2 190 25 81 41 106 117 117 364 l3 69 -50 12 c-27 6
-69 21 -92 33 -23 12 -44 22 -46 22 -3 0 -6 -63 -9 -141 -3 -134 -5 -142 -27
-160 -27 -22 -60 -24 -85 -6 -16 11 -17 41 -14 397 l3 385 -385 0 -385 0 -1
-220z m545 -207 c0 -213 -1 -222 -17 -198 -47 69 -134 179 -165 208 l-35 34
-51 -37 -51 -37 0 59 c0 32 3 88 7 126 l6 67 153 0 154 0 -1 -222z"/>
</g>
</svg>
