<?xml version="1.0" standalone="no"?>
<!DOCTYPE svg PUBLIC "-//W3C//DTD SVG 20010904//EN"
 "http://www.w3.org/TR/2001/REC-SVG-20010904/DTD/svg10.dtd">
<svg version="1.0" xmlns="http://www.w3.org/2000/svg"
 width="200.000000pt" height="200.000000pt" viewBox="0 0 200.000000 200.000000"
 preserveAspectRatio="xMidYMid meet">
<metadata>
Created by potrace 1.10, written by Peter Selinger 2001-2011
</metadata>
<g transform="translate(0.000000,200.000000) scale(0.100000,-0.100000)"
fill="#000000" stroke="none">
<path d="M387 1743 c-1 -1 -1 -43 1 -95 l3 -93 405 4 c262 2 404 0 404 -7 0
-5 -50 -35 -110 -66 -79 -40 -122 -56 -150 -56 l-40 0 0 -165 c0 -165 0 -166
-24 -175 -23 -8 -219 4 -237 16 -13 8 -11 -4 11 -74 11 -35 20 -77 20 -93 l0
-29 163 0 c137 0 168 3 204 19 71 33 78 52 81 236 4 156 8 174 37 175 6 0 30
-27 55 -61 63 -87 223 -236 327 -306 82 -55 309 -173 332 -173 6 0 26 34 45
75 19 41 44 89 56 105 20 29 20 30 3 37 -151 53 -282 114 -366 171 l-29 20 48
33 c63 43 254 208 254 219 0 9 -165 130 -177 130 -3 0 -40 -36 -81 -80 -72
-79 -181 -170 -200 -170 -11 0 -92 88 -92 99 1 3 36 32 78 64 115 86 134 105
125 121 -4 7 -29 36 -54 64 l-47 51 -522 3 c-287 2 -522 2 -523 1z"/>
<path d="M100 1391 l0 -101 206 0 205 0 -21 -27 c-66 -86 -226 -192 -387 -258
l-91 -37 35 -46 c19 -25 45 -67 59 -94 l24 -48 80 40 80 40 0 -92 0 -93 627 3
c346 2 651 0 678 -5 l50 -9 -72 -39 c-71 -38 -72 -39 -55 -60 92 -118 139
-184 186 -260 30 -50 60 -89 66 -87 25 6 190 107 190 117 0 15 -131 187 -205
268 l-65 72 0 95 0 95 -572 -4 c-605 -3 -817 3 -785 23 111 68 158 105 252
200 61 61 134 147 164 190 l55 80 -69 63 -69 63 -267 0 c-147 0 -274 3 -283 6
-14 5 -16 -7 -16 -95z"/>
<path d="M228 583 c-44 -69 -125 -158 -190 -209 l-37 -30 96 -74 96 -74 54 60
c105 117 219 282 211 306 -2 6 -45 27 -95 48 l-92 38 -43 -65z"/>
<path d="M1140 608 c-47 -11 -87 -22 -88 -23 -2 -2 14 -55 36 -117 22 -63 46
-142 52 -176 7 -35 16 -65 20 -67 8 -5 218 40 226 47 6 6 -58 190 -97 281 -21
50 -39 77 -49 76 -8 0 -53 -10 -100 -21z"/>
<path d="M683 601 c-28 -4 -55 -9 -58 -13 -3 -3 1 -57 9 -119 9 -63 19 -145
22 -183 l6 -68 66 6 c37 4 89 9 116 12 l48 6 -7 67 c-8 81 -31 213 -45 264
-11 36 -12 37 -58 36 -26 -1 -70 -5 -99 -8z"/>
</g>
</svg>
