<?xml version="1.0" standalone="no"?>
<!DOCTYPE svg PUBLIC "-//W3C//DTD SVG 20010904//EN"
 "http://www.w3.org/TR/2001/REC-SVG-20010904/DTD/svg10.dtd">
<svg version="1.0" xmlns="http://www.w3.org/2000/svg"
 width="200.000000pt" height="200.000000pt" viewBox="0 0 200.000000 200.000000"
 preserveAspectRatio="xMidYMid meet">
<metadata>
Created by potrace 1.10, written by Peter Selinger 2001-2011
</metadata>
<g transform="translate(0.000000,200.000000) scale(0.100000,-0.100000)"
fill="#000000" stroke="none">
<path d="M1031 1878 l4 -83 -340 0 -341 1 3 -271 c2 -205 0 -264 -8 -245 -37
82 -142 289 -158 310 l-19 24 -41 -28 c-22 -15 -57 -43 -77 -60 l-38 -33 21
-29 c30 -43 75 -136 118 -244 21 -52 39 -97 41 -99 2 -2 39 27 84 64 l80 67 0
-44 c0 -23 -3 -74 -7 -112 l-6 -69 -101 -48 c-56 -26 -128 -57 -161 -68 -34
-11 -60 -26 -59 -33 3 -37 58 -208 67 -208 6 0 59 27 119 61 60 33 111 59 113
57 8 -8 -36 -199 -61 -270 -40 -111 -83 -186 -146 -254 l-58 -61 63 -64 c35
-35 73 -77 84 -94 l21 -30 27 25 c69 64 160 220 214 368 80 216 101 374 107
802 3 184 7 345 10 358 l5 23 699 -3 700 -3 0 106 0 106 -362 -5 -361 -5 6 87
6 86 -125 0 -126 0 3 -82z"/>
</g>
</svg>
