<?xml version="1.0" standalone="no"?>
<!DOCTYPE svg PUBLIC "-//W3C//DTD SVG 20010904//EN"
 "http://www.w3.org/TR/2001/REC-SVG-20010904/DTD/svg10.dtd">
<svg version="1.0" xmlns="http://www.w3.org/2000/svg"
 width="200.000000pt" height="200.000000pt" viewBox="0 0 200.000000 200.000000"
 preserveAspectRatio="xMidYMid meet">
<metadata>
Created by potrace 1.10, written by Peter Selinger 2001-2011
</metadata>
<g transform="translate(0.000000,200.000000) scale(0.100000,-0.100000)"
fill="#000000" stroke="none">
<path d="M852 1580 l5 -71 -231 1 -231 1 -3 -118 -3 -118 236 3 236 4 -3 -59
-3 -58 -207 3 -208 3 0 -115 0 -115 208 2 207 2 0 -65 0 -65 -252 2 -253 2 0
-122 0 -122 257 4 256 3 -7 -163 c-3 -90 -9 -174 -12 -186 l-6 -23 146 0 146
0 -6 53 c-3 28 -7 110 -7 182 l-2 130 225 0 c124 0 252 -2 285 -4 l60 -5 0
129 0 128 -85 -4 c-47 -2 -175 -4 -285 -4 l-200 0 0 65 0 65 223 -1 222 -2 0
114 0 114 -222 -3 -223 -2 -3 58 -3 59 260 -4 261 -3 0 120 0 120 -260 -3
-260 -3 6 71 7 70 -138 0 -138 0 5 -70z"/>
</g>
</svg>
