<?xml version="1.0" standalone="no"?>
<!DOCTYPE svg PUBLIC "-//W3C//DTD SVG 20010904//EN"
 "http://www.w3.org/TR/2001/REC-SVG-20010904/DTD/svg10.dtd">
<svg version="1.0" xmlns="http://www.w3.org/2000/svg"
 width="200.000000pt" height="200.000000pt" viewBox="0 0 200.000000 200.000000"
 preserveAspectRatio="xMidYMid meet">
<metadata>
Created by potrace 1.10, written by Peter Selinger 2001-2011
</metadata>
<g transform="translate(0.000000,200.000000) scale(0.100000,-0.100000)"
fill="#000000" stroke="none">
<path d="M867 1854 l6 -107 -241 5 -242 4 0 -107 0 -106 210 5 c158 4 210 2
210 -7 0 -33 -109 -201 -130 -201 -5 0 -33 18 -62 40 -29 22 -56 40 -59 40 -3
0 -38 -36 -78 -79 l-71 -79 97 -74 c54 -40 136 -109 183 -154 75 -73 83 -84
70 -98 -26 -33 -207 -146 -308 -194 l-103 -48 27 -25 c14 -13 48 -55 76 -92
l50 -68 87 47 c277 149 484 335 741 667 51 65 90 120 88 122 -1 1 -46 29 -98
60 -85 52 -96 56 -105 40 -66 -113 -167 -246 -233 -309 l-31 -28 -55 48 c-31
26 -56 50 -56 52 0 2 17 25 39 51 48 58 110 149 153 226 l34 60 217 -1 217 -1
0 107 0 107 -201 -5 -201 -5 4 107 3 106 -122 0 -122 0 6 -106z"/>
<path d="M1257 936 c-189 -260 -475 -499 -775 -647 l-124 -61 34 -37 c19 -20
52 -58 73 -86 22 -27 42 -54 46 -59 17 -19 316 165 465 286 l81 66 58 -65 c65
-73 178 -172 262 -230 l56 -38 21 29 c11 16 45 59 73 95 29 36 53 68 53 72 0
3 -19 14 -43 26 -60 29 -191 130 -262 202 l-59 61 55 58 c88 89 241 281 234
291 -6 10 -170 131 -177 131 -1 -1 -34 -43 -71 -94z"/>
</g>
</svg>
