<?xml version="1.0" standalone="no"?>
<!DOCTYPE svg PUBLIC "-//W3C//DTD SVG 20010904//EN"
 "http://www.w3.org/TR/2001/REC-SVG-20010904/DTD/svg10.dtd">
<svg version="1.0" xmlns="http://www.w3.org/2000/svg"
 width="200.000000pt" height="200.000000pt" viewBox="0 0 200.000000 200.000000"
 preserveAspectRatio="xMidYMid meet">
<metadata>
Created by potrace 1.10, written by Peter Selinger 2001-2011
</metadata>
<g transform="translate(0.000000,200.000000) scale(0.100000,-0.100000)"
fill="#000000" stroke="none">
<path d="M669 1603 c-1 -5 0 -36 1 -71 l2 -63 -286 3 -286 3 0 -90 0 -90 281
3 280 4 -3 -39 -3 -38 -232 1 -231 0 -22 -90 c-11 -50 -37 -131 -56 -181 -19
-49 -37 -97 -40 -105 -4 -13 22 -15 203 -12 l208 3 -25 -21 c-53 -44 -189
-101 -320 -134 -74 -18 -136 -38 -138 -44 -2 -7 6 -25 18 -41 11 -17 32 -55
45 -86 14 -30 29 -55 35 -55 24 0 210 65 264 92 124 62 291 174 346 230 l57
58 181 0 182 0 0 -90 0 -90 110 0 110 0 0 90 0 90 190 0 c181 0 190 -1 190
-19 0 -39 -29 -54 -90 -48 -31 4 -64 9 -73 13 -15 5 -12 -7 13 -76 16 -45 30
-84 30 -87 0 -3 49 -4 108 -1 122 5 163 21 194 75 21 35 43 134 53 236 l7 67
-311 0 -311 0 0 35 0 35 250 0 250 0 0 189 c0 104 2 195 5 203 4 11 -41 12
-251 10 l-255 -4 2 69 3 68 -115 0 -114 0 3 -67 4 -68 -121 0 -121 0 0 70 0
70 -110 0 c-60 0 -111 -3 -111 -7z m461 -343 l0 -40 -125 0 -125 0 0 40 0 40
125 0 125 0 0 -40z m490 0 l0 -40 -135 0 -135 0 0 40 0 40 135 0 135 0 0 -40z
m-990 -194 c0 -1 -5 -17 -11 -35 l-11 -31 -127 0 -128 0 11 35 11 35 127 0
c71 0 128 -2 128 -4z m500 -31 l0 -35 -149 0 -150 0 10 32 c5 18 9 34 9 35 0
2 63 3 140 3 l140 0 0 -35z"/>
</g>
</svg>
