<?xml version="1.0" standalone="no"?>
<!DOCTYPE svg PUBLIC "-//W3C//DTD SVG 20010904//EN"
 "http://www.w3.org/TR/2001/REC-SVG-20010904/DTD/svg10.dtd">
<svg version="1.0" xmlns="http://www.w3.org/2000/svg"
 width="200.000000pt" height="200.000000pt" viewBox="0 0 200.000000 200.000000"
 preserveAspectRatio="xMidYMid meet">
<metadata>
Created by potrace 1.10, written by Peter Selinger 2001-2011
</metadata>
<g transform="translate(0.000000,200.000000) scale(0.100000,-0.100000)"
fill="#000000" stroke="none">
<path d="M834 1973 c3 -10 8 -51 12 -92 l7 -73 -272 3 -272 4 3 -115 c2 -63 6
-114 11 -112 4 1 293 2 642 2 l635 0 0 113 0 112 -237 -4 -236 -3 6 91 6 91
-155 0 c-143 0 -155 -1 -150 -17z"/>
<path d="M447 1287 l3 -219 522 -1 523 -2 0 220 0 220 -525 0 -525 0 2 -218z
m773 -2 l0 -45 -250 0 -250 0 0 45 0 45 250 0 250 0 0 -45z"/>
<path d="M380 884 l0 -101 330 5 c230 3 330 2 330 -6 0 -16 -125 -72 -161 -72
l-31 0 7 -49 7 -49 -208 -7 c-115 -4 -241 -5 -281 -2 l-74 6 6 -32 c27 -167
35 -210 38 -214 4 -3 306 18 455 33 l62 6 0 -60 c0 -90 -2 -92 -79 -92 -36 0
-106 5 -154 11 -49 6 -91 8 -94 6 -2 -3 3 -19 11 -36 9 -17 24 -66 34 -108
l18 -78 129 -9 c148 -10 279 3 328 32 59 34 72 71 75 223 l4 136 121 12 c67 6
161 16 210 23 l87 11 0 98 c0 116 16 107 -155 85 -60 -8 -145 -18 -187 -21
-116 -11 -104 9 48 83 69 34 158 83 197 108 l71 46 -61 54 -61 54 -511 2 -511
3 0 -101z"/>
</g>
</svg>
