<?xml version="1.0" standalone="no"?>
<!DOCTYPE svg PUBLIC "-//W3C//DTD SVG 20010904//EN"
 "http://www.w3.org/TR/2001/REC-SVG-20010904/DTD/svg10.dtd">
<svg version="1.0" xmlns="http://www.w3.org/2000/svg"
 width="200.000000pt" height="200.000000pt" viewBox="0 0 200.000000 200.000000"
 preserveAspectRatio="xMidYMid meet">
<metadata>
Created by potrace 1.10, written by Peter Selinger 2001-2011
</metadata>
<g transform="translate(0.000000,200.000000) scale(0.100000,-0.100000)"
fill="#000000" stroke="none">
<path d="M405 1535 l0 -420 240 0 240 0 0 -65 0 -65 -285 2 -285 2 3 -367 c2
-202 -1 -413 -5 -469 l-9 -103 121 0 120 0 -3 370 -4 370 174 -2 173 -3 3
-124 c1 -68 -1 -128 -6 -133 -4 -4 -70 -11 -145 -15 -119 -5 -137 -8 -133 -22
3 -9 12 -54 21 -101 9 -47 18 -90 20 -96 4 -12 273 31 477 75 54 11 104 21
112 21 8 0 17 -15 21 -37 4 -21 9 -41 11 -45 3 -5 140 42 165 58 10 6 -61 213
-106 312 -19 39 -40 72 -47 72 -24 0 -138 -41 -138 -50 0 -4 12 -33 26 -64 14
-32 24 -60 20 -63 -13 -13 -88 -20 -92 -9 -3 7 -3 59 -2 117 l3 104 183 3 182
2 -2 -257 -3 -258 -88 -3 c-48 -1 -117 1 -153 6 -64 9 -65 8 -59 -12 3 -12 16
-60 28 -108 25 -100 21 -98 147 -98 122 0 247 17 284 37 63 37 64 45 69 490
l3 402 -295 -2 -296 -2 -3 68 -3 68 256 -2 255 -2 3 419 2 419 -600 0 -600 0
0 -420z m480 160 l0 -70 -130 0 -130 0 -3 73 -3 73 133 -3 133 -3 0 -70z m495
0 l0 -76 -142 3 -143 3 -3 73 -3 72 146 0 145 0 0 -75z m-490 -320 l0 -75
-135 0 -135 0 0 75 0 75 135 0 135 0 0 -75z m490 0 l0 -75 -145 0 -145 0 0 75
0 75 145 0 145 0 0 -75z"/>
</g>
</svg>
