<?xml version="1.0" standalone="no"?>
<!DOCTYPE svg PUBLIC "-//W3C//DTD SVG 20010904//EN"
 "http://www.w3.org/TR/2001/REC-SVG-20010904/DTD/svg10.dtd">
<svg version="1.0" xmlns="http://www.w3.org/2000/svg"
 width="200.000000pt" height="200.000000pt" viewBox="0 0 200.000000 200.000000"
 preserveAspectRatio="xMidYMid meet">
<metadata>
Created by potrace 1.10, written by Peter Selinger 2001-2011
</metadata>
<g transform="translate(0.000000,200.000000) scale(0.100000,-0.100000)"
fill="#000000" stroke="none">
<path d="M879 1923 c-50 -78 -188 -221 -270 -281 -51 -37 -217 -136 -243 -145
-5 -2 11 -30 36 -63 25 -32 56 -78 68 -101 l22 -42 41 26 c23 14 61 39 84 54
23 16 44 29 47 29 3 0 6 -16 6 -35 l0 -35 125 7 125 6 0 -67 0 -67 -207 3
-208 3 0 -296 0 -296 184 5 183 5 -7 -24 c-37 -123 -212 -285 -400 -369 -38
-17 -71 -33 -73 -35 -2 -2 14 -25 35 -52 21 -27 49 -70 63 -96 14 -26 29 -47
35 -47 13 0 144 72 214 117 77 50 219 196 262 271 l36 61 46 -63 c80 -109 204
-217 348 -304 l37 -22 32 57 c18 32 48 78 67 102 l33 44 -79 43 c-102 54 -155
90 -225 154 -52 49 -126 139 -126 155 0 4 83 6 185 3 l185 -5 0 296 0 296
-200 -3 -200 -3 0 67 0 67 150 -6 150 -5 0 59 c0 32 2 59 5 59 2 0 26 -13 52
-30 26 -16 50 -30 53 -30 3 0 14 22 24 49 9 27 32 73 51 102 l33 53 -93 51
c-51 29 -125 75 -163 103 -69 51 -185 167 -218 217 -16 24 -19 25 -139 25
l-123 0 -43 -67z m379 -342 l63 -51 -250 0 -250 0 72 74 c40 40 90 99 112 130
l40 56 75 -79 c41 -44 103 -102 138 -130z m-343 -563 c2 -7 1 -56 -3 -108 l-7
-95 -92 -3 -93 -3 0 104 c0 57 3 107 7 110 12 13 183 8 188 -5z m420 -98 l0
-105 -102 -3 -103 -3 0 104 c0 57 3 107 7 111 4 4 50 5 103 4 l95 -3 0 -105z"/>
</g>
</svg>
