<?xml version="1.0" standalone="no"?>
<!DOCTYPE svg PUBLIC "-//W3C//DTD SVG 20010904//EN"
 "http://www.w3.org/TR/2001/REC-SVG-20010904/DTD/svg10.dtd">
<svg version="1.0" xmlns="http://www.w3.org/2000/svg"
 width="200.000000pt" height="200.000000pt" viewBox="0 0 200.000000 200.000000"
 preserveAspectRatio="xMidYMid meet">
<metadata>
Created by potrace 1.10, written by Peter Selinger 2001-2011
</metadata>
<g transform="translate(0.000000,200.000000) scale(0.100000,-0.100000)"
fill="#000000" stroke="none">
<path d="M175 1245 c-1 -349 -26 -483 -121 -638 l-35 -57 81 -88 c45 -48 87
-87 92 -87 15 0 93 148 127 241 16 44 37 119 46 167 l18 87 104 0 104 0 -3
-132 -3 -133 -119 -7 c-66 -5 -120 -9 -122 -11 -2 -2 20 -132 31 -185 3 -13 9
-21 13 -18 4 2 93 14 197 26 191 21 528 74 545 85 6 4 10 42 10 86 l0 79 62
-46 c148 -109 390 -195 638 -229 l45 -6 42 103 c23 56 41 103 39 105 -1 2 -49
8 -107 13 -95 10 -283 45 -302 57 -5 3 21 24 57 48 36 23 79 54 96 69 l32 26
-44 19 c-24 10 -61 24 -83 32 l-40 14 30 3 c17 2 92 2 168 0 l137 -3 0 87 0
88 -755 0 -755 0 0 145 0 145 746 0 746 -1 0 86 0 85 -859 3 -858 2 0 -260z
m824 -417 c13 -24 47 -66 74 -95 34 -36 45 -54 36 -57 -19 -7 -271 -46 -292
-46 -15 0 -17 14 -17 120 l0 120 88 0 87 0 24 -42z m525 21 c-10 -11 -48 -43
-86 -70 l-67 -50 -40 21 c-46 23 -107 74 -122 101 -9 18 -2 19 162 19 l172 0
-19 -21z"/>
<path d="M480 1185 l0 -80 645 0 645 0 0 80 0 80 -645 0 -645 0 0 -80z"/>
</g>
</svg>
