<?xml version="1.0" standalone="no"?>
<!DOCTYPE svg PUBLIC "-//W3C//DTD SVG 20010904//EN"
 "http://www.w3.org/TR/2001/REC-SVG-20010904/DTD/svg10.dtd">
<svg version="1.0" xmlns="http://www.w3.org/2000/svg"
 width="200.000000pt" height="200.000000pt" viewBox="0 0 200.000000 200.000000"
 preserveAspectRatio="xMidYMid meet">
<metadata>
Created by potrace 1.10, written by Peter Selinger 2001-2011
</metadata>
<g transform="translate(0.000000,200.000000) scale(0.100000,-0.100000)"
fill="#000000" stroke="none">
<path d="M1225 1947 c-58 -57 -231 -180 -386 -272 -182 -109 -294 -166 -441
-226 -60 -23 -108 -47 -108 -52 0 -5 8 -21 19 -35 25 -37 76 -139 90 -184 7
-21 15 -38 17 -38 3 0 31 14 64 30 33 17 62 30 66 30 9 0 -1 -1142 -10 -1162
-8 -17 3 -18 150 -18 l159 0 -3 664 -3 664 52 32 c28 17 52 30 54 28 2 -2 15
-70 29 -153 46 -269 98 -435 207 -665 33 -69 89 -168 124 -220 55 -83 222
-280 283 -334 l22 -19 30 67 c24 55 90 164 135 222 6 9 -22 44 -100 126 -61
62 -132 147 -160 188 -58 87 -175 308 -174 330 0 8 36 42 81 75 109 81 320
284 314 302 -3 7 -43 56 -88 108 l-83 95 -49 -58 c-79 -90 -247 -242 -269
-242 -10 0 -56 263 -57 320 0 8 65 64 145 125 80 60 145 112 145 116 0 3 -44
44 -97 90 -54 46 -99 87 -101 91 -6 15 -27 6 -57 -25z"/>
</g>
</svg>
