<?xml version="1.0" standalone="no"?>
<!DOCTYPE svg PUBLIC "-//W3C//DTD SVG 20010904//EN"
 "http://www.w3.org/TR/2001/REC-SVG-20010904/DTD/svg10.dtd">
<svg version="1.0" xmlns="http://www.w3.org/2000/svg"
 width="200.000000pt" height="200.000000pt" viewBox="0 0 200.000000 200.000000"
 preserveAspectRatio="xMidYMid meet">
<metadata>
Created by potrace 1.10, written by Peter Selinger 2001-2011
</metadata>
<g transform="translate(0.000000,200.000000) scale(0.100000,-0.100000)"
fill="#000000" stroke="none">
<path d="M525 1988 c-3 -8 -4 -63 -3 -124 l3 -109 50 3 50 3 29 -58 c39 -81
129 -217 188 -285 l49 -57 -55 -36 c-86 -55 -194 -109 -288 -145 l-86 -33 44
-54 c24 -30 55 -76 69 -103 l25 -50 110 55 c122 61 218 118 295 175 l52 38 64
-44 c35 -25 96 -63 134 -84 67 -36 278 -130 293 -130 5 0 14 16 21 35 7 20 33
66 58 103 24 37 46 70 49 73 2 3 -49 23 -114 43 -108 35 -272 107 -316 141
-17 13 -15 18 44 82 56 61 290 401 290 420 0 5 -29 37 -64 72 l-64 63 -443 2
c-244 1 -452 5 -461 10 -12 5 -20 3 -23 -6z m725 -235 c0 -15 -100 -159 -144
-208 l-45 -50 -41 40 c-43 42 -150 194 -150 214 0 8 55 11 190 11 105 0 190
-3 190 -7z"/>
<path d="M912 923 l3 -138 -182 2 -183 1 0 -117 0 -116 183 0 182 0 3 -153 3
-153 -248 2 -248 2 -3 -119 -3 -119 616 0 615 0 0 120 0 120 -245 -3 -245 -4
0 157 0 157 210 -4 210 -3 0 116 0 116 -211 -5 -211 -5 4 142 3 141 -128 0
-128 0 3 -137z"/>
</g>
</svg>
