<?xml version="1.0" standalone="no"?>
<!DOCTYPE svg PUBLIC "-//W3C//DTD SVG 20010904//EN"
 "http://www.w3.org/TR/2001/REC-SVG-20010904/DTD/svg10.dtd">
<svg version="1.0" xmlns="http://www.w3.org/2000/svg"
 width="200.000000pt" height="200.000000pt" viewBox="0 0 200.000000 200.000000"
 preserveAspectRatio="xMidYMid meet">
<metadata>
Created by potrace 1.10, written by Peter Selinger 2001-2011
</metadata>
<g transform="translate(0.000000,200.000000) scale(0.100000,-0.100000)"
fill="#000000" stroke="none">
<path d="M857 1713 c-4 -3 -7 -31 -7 -62 0 -31 -3 -67 -7 -80 l-6 -23 -328 4
-329 4 0 -96 0 -96 310 4 c171 3 310 3 310 1 0 -2 -6 -24 -14 -49 l-13 -45
-252 -3 -251 -2 0 -93 0 -92 210 3 c115 2 210 1 210 -3 0 -3 -11 -28 -25 -56
l-26 -50 -279 3 -280 3 0 -100 0 -100 211 3 211 4 -18 -28 c-42 -64 -256 -231
-406 -317 l-47 -28 34 -45 c20 -25 47 -67 62 -92 15 -26 28 -49 30 -51 2 -3
47 25 101 61 166 113 366 305 472 451 l33 47 243 0 242 0 39 -54 c112 -158
327 -354 525 -480 l57 -36 25 56 c14 30 39 76 56 100 16 25 30 48 30 52 0 4
-33 24 -73 46 -125 67 -230 142 -323 230 l-89 86 220 -2 220 -2 0 98 0 98
-291 -2 -292 -1 -26 45 c-14 24 -26 50 -26 56 0 8 60 11 220 8 l220 -3 0 93 0
92 -370 0 c-203 0 -370 1 -370 3 0 1 6 22 14 47 l13 45 402 0 401 0 0 95 0 95
-382 -4 -381 -3 6 43 c3 24 9 58 13 76 6 31 6 32 -37 37 -92 11 -186 16 -192
9z m251 -675 c12 -28 20 -53 18 -55 -2 -2 -57 -2 -123 -1 l-119 3 23 53 24 52
77 0 77 0 23 -52z"/>
</g>
</svg>
