<?xml version="1.0" standalone="no"?>
<!DOCTYPE svg PUBLIC "-//W3C//DTD SVG 20010904//EN"
 "http://www.w3.org/TR/2001/REC-SVG-20010904/DTD/svg10.dtd">
<svg version="1.0" xmlns="http://www.w3.org/2000/svg"
 width="200.000000pt" height="200.000000pt" viewBox="0 0 200.000000 200.000000"
 preserveAspectRatio="xMidYMid meet">
<metadata>
Created by potrace 1.10, written by Peter Selinger 2001-2011
</metadata>
<g transform="translate(0.000000,200.000000) scale(0.100000,-0.100000)"
fill="#000000" stroke="none">
<path d="M844 1463 c4 -16 10 -214 13 -440 l6 -413 138 0 139 0 0 373 c0 204
3 402 7 440 l6 67 -158 0 -157 0 6 -27z"/>
<path d="M1663 1252 c-68 -139 -171 -304 -259 -413 -32 -39 -53 -73 -48 -78
14 -12 225 -131 233 -131 9 0 123 151 189 250 90 136 222 375 211 383 -6 5
-258 117 -261 117 -2 -1 -31 -58 -65 -128z"/>
<path d="M123 1309 l-112 -60 79 -105 c87 -115 148 -213 235 -379 32 -60 59
-111 61 -113 3 -5 234 129 240 140 7 11 -81 175 -153 288 -86 133 -206 290
-223 289 -8 0 -65 -27 -127 -60z"/>
</g>
</svg>
