<?xml version="1.0" standalone="no"?>
<!DOCTYPE svg PUBLIC "-//W3C//DTD SVG 20010904//EN"
 "http://www.w3.org/TR/2001/REC-SVG-20010904/DTD/svg10.dtd">
<svg version="1.0" xmlns="http://www.w3.org/2000/svg"
 width="200.000000pt" height="200.000000pt" viewBox="0 0 200.000000 200.000000"
 preserveAspectRatio="xMidYMid meet">
<metadata>
Created by potrace 1.10, written by Peter Selinger 2001-2011
</metadata>
<g transform="translate(0.000000,200.000000) scale(0.100000,-0.100000)"
fill="#000000" stroke="none">
<path d="M802 1895 l-72 -84 117 -80 c65 -44 159 -116 208 -160 50 -44 93 -81
97 -81 3 0 39 43 79 96 l74 96 -35 30 c-109 93 -366 269 -387 267 -5 0 -41
-38 -81 -84z"/>
<path d="M705 1350 c-37 -50 -66 -92 -64 -94 2 -2 33 -21 69 -42 97 -56 175
-109 273 -187 48 -38 89 -68 91 -66 20 26 136 202 134 204 -118 94 -398 275
-426 275 -6 0 -40 -41 -77 -90z"/>
<path d="M1010 798 c-76 -178 -197 -390 -295 -517 -30 -39 -55 -73 -55 -75 0
-2 45 -43 100 -91 83 -71 103 -85 115 -75 42 35 215 341 301 533 l63 140 -22
17 c-32 25 -175 120 -180 120 -3 0 -15 -24 -27 -52z"/>
</g>
</svg>
