<?xml version="1.0" standalone="no"?>
<!DOCTYPE svg PUBLIC "-//W3C//DTD SVG 20010904//EN"
 "http://www.w3.org/TR/2001/REC-SVG-20010904/DTD/svg10.dtd">
<svg version="1.0" xmlns="http://www.w3.org/2000/svg"
 width="200.000000pt" height="200.000000pt" viewBox="0 0 200.000000 200.000000"
 preserveAspectRatio="xMidYMid meet">
<metadata>
Created by potrace 1.10, written by Peter Selinger 2001-2011
</metadata>
<g transform="translate(0.000000,200.000000) scale(0.100000,-0.100000)"
fill="#000000" stroke="none">
<path d="M635 1948 c5 -13 10 -412 12 -888 2 -541 7 -879 13 -902 13 -47 67
-93 131 -112 117 -35 427 -29 542 10 123 42 172 173 179 483 l3 124 -56 13
c-31 7 -82 24 -114 38 -31 14 -59 26 -60 26 -1 0 -5 -82 -7 -182 -7 -269 -20
-290 -189 -296 -54 -3 -114 -1 -133 2 -71 13 -66 -44 -65 799 0 419 4 795 8
835 l7 72 -139 0 -139 0 7 -22z"/>
</g>
</svg>
