<?xml version="1.0" standalone="no"?>
<!DOCTYPE svg PUBLIC "-//W3C//DTD SVG 20010904//EN"
 "http://www.w3.org/TR/2001/REC-SVG-20010904/DTD/svg10.dtd">
<svg version="1.0" xmlns="http://www.w3.org/2000/svg"
 width="200.000000pt" height="200.000000pt" viewBox="0 0 200.000000 200.000000"
 preserveAspectRatio="xMidYMid meet">
<metadata>
Created by potrace 1.10, written by Peter Selinger 2001-2011
</metadata>
<g transform="translate(0.000000,200.000000) scale(0.100000,-0.100000)"
fill="#000000" stroke="none">
<path d="M901 1489 c-57 -10 -105 -20 -107 -22 -2 -2 12 -33 31 -69 19 -36 46
-91 60 -122 l25 -56 -101 0 -100 0 -17 31 c-26 48 -115 193 -133 218 l-16 21
-112 -24 c-62 -13 -115 -27 -118 -30 -3 -3 8 -22 24 -43 33 -42 103 -157 103
-168 0 -3 -82 -5 -182 -3 l-183 3 0 -267 0 -268 118 0 117 0 0 165 0 165 700
0 700 0 0 -165 0 -165 118 0 117 0 0 267 0 268 -179 -3 -179 -4 21 34 c11 18
41 67 66 108 25 41 46 79 46 85 0 16 -243 71 -248 56 -11 -34 -97 -199 -123
-237 l-30 -44 -78 0 -77 0 -24 58 c-43 106 -110 232 -123 231 -6 -1 -59 -9
-116 -20z"/>
</g>
</svg>
