<?xml version="1.0" standalone="no"?>
<!DOCTYPE svg PUBLIC "-//W3C//DTD SVG 20010904//EN"
 "http://www.w3.org/TR/2001/REC-SVG-20010904/DTD/svg10.dtd">
<svg version="1.0" xmlns="http://www.w3.org/2000/svg"
 width="200.000000pt" height="200.000000pt" viewBox="0 0 200.000000 200.000000"
 preserveAspectRatio="xMidYMid meet">
<metadata>
Created by potrace 1.10, written by Peter Selinger 2001-2011
</metadata>
<g transform="translate(0.000000,200.000000) scale(0.100000,-0.100000)"
fill="#000000" stroke="none">
<path d="M899 1894 l3 -97 -206 5 -206 5 0 -109 0 -108 203 2 202 3 3 -88 3
-88 -261 3 -260 3 0 -110 0 -110 159 4 159 3 -7 -33 c-24 -104 -85 -174 -197
-226 -41 -18 -74 -38 -74 -42 0 -5 16 -28 36 -52 19 -24 45 -60 57 -81 27 -47
38 -46 141 14 135 79 231 212 259 356 l12 62 82 0 83 0 0 -170 0 -170 -97 0
-98 0 3 -112 3 -111 -220 6 -221 6 0 -109 0 -109 218 2 217 2 3 -108 3 -108
-331 3 -330 3 0 -110 0 -110 755 0 755 0 0 110 0 110 -305 -3 -306 -3 3 108 3
108 248 -2 247 -1 0 108 0 108 -250 -6 -250 -5 0 88 c0 86 0 87 23 80 40 -14
315 -17 385 -5 81 14 114 33 140 79 20 36 42 131 42 182 0 24 -5 28 -42 34
-24 4 -65 16 -93 26 -73 28 -75 27 -75 -35 0 -73 -20 -97 -88 -104 -28 -2 -67
-1 -86 2 l-36 7 0 105 0 106 205 -4 205 -3 0 110 0 110 -290 -3 -291 -3 3 88
3 88 243 -2 242 -2 0 107 0 108 -246 -4 -246 -4 3 96 4 96 -125 0 -125 0 4
-96z"/>
</g>
</svg>
