<?xml version="1.0" standalone="no"?>
<!DOCTYPE svg PUBLIC "-//W3C//DTD SVG 20010904//EN"
 "http://www.w3.org/TR/2001/REC-SVG-20010904/DTD/svg10.dtd">
<svg version="1.0" xmlns="http://www.w3.org/2000/svg"
 width="200.000000pt" height="200.000000pt" viewBox="0 0 200.000000 200.000000"
 preserveAspectRatio="xMidYMid meet">
<metadata>
Created by potrace 1.10, written by Peter Selinger 2001-2011
</metadata>
<g transform="translate(0.000000,200.000000) scale(0.100000,-0.100000)"
fill="#000000" stroke="none">
<path d="M888 1919 l5 -81 -282 4 -281 4 0 -121 0 -120 280 3 280 4 0 -62 0
-63 -330 5 -330 4 0 -115 0 -116 835 0 835 0 0 115 0 116 -365 -4 -365 -4 0
62 0 62 305 -4 305 -3 0 121 0 121 -306 -5 -307 -5 5 82 5 81 -147 0 -147 0 5
-81z"/>
<path d="M365 903 l0 -263 188 0 c134 0 186 -3 181 -11 -11 -18 -184 -129
-269 -171 -44 -22 -120 -56 -170 -75 -49 -19 -91 -36 -93 -38 -2 -2 18 -32 43
-67 26 -34 56 -81 67 -103 11 -22 22 -41 23 -43 5 -6 229 110 295 152 36 24
103 73 149 111 l84 68 -5 -227 -4 -226 139 0 140 0 -5 214 -5 213 57 -66 c100
-116 297 -239 500 -314 149 -55 134 -55 159 7 12 29 40 84 62 121 21 37 39 68
39 70 0 1 -28 8 -62 15 -69 13 -225 62 -264 83 l-26 14 53 38 c30 21 85 64
123 94 l69 56 -89 42 -89 42 45 0 45 1 0 263 0 262 -690 0 -690 0 0 -262z
m1113 0 l-3 -68 -420 0 -420 0 -3 68 -3 67 426 0 426 0 -3 -67z m35 -332 c-39
-38 -83 -77 -97 -86 -25 -16 -26 -16 -83 28 -32 24 -78 63 -103 85 l-45 41
200 0 200 0 -72 -68z"/>
</g>
</svg>
